<svg width="27" height="26" viewBox="0 0 27 26" fill="none" xmlns="http://www.w3.org/2000/svg">
<path fill-rule="evenodd" clip-rule="evenodd" d="M24.5301 4.00008H6.11336L4.53979 1.17954C4.36317 0.862953 4.02903 0.666748 3.6665 0.666748H1.6665C1.11422 0.666748 0.666504 1.11446 0.666504 1.66675C0.666504 2.21903 1.11422 2.66675 1.6665 2.66675H3.0793L4.63223 5.45028L8.21366 13.3746L8.21733 13.3827L8.53278 14.0806L4.93699 17.9161C4.67844 18.1919 4.59751 18.5899 4.72782 18.9448C4.85813 19.2997 5.1774 19.5507 5.55298 19.5936L8.83049 19.9682C12.9301 20.4367 17.0697 20.4367 21.1692 19.9682L24.4467 19.5936C24.9955 19.5309 25.3894 19.0353 25.3267 18.4865C25.264 17.9378 24.7684 17.5438 24.2196 17.6066L20.9421 17.9811C16.9935 18.4324 13.0063 18.4324 9.05759 17.9811L7.7569 17.8325L10.3961 15.0174C10.4216 14.9901 10.4453 14.9619 10.4672 14.9327L11.471 15.0633C12.8775 15.2463 14.2993 15.2822 15.7133 15.1703C19.0113 14.9095 22.0679 13.3402 24.2018 10.8122L24.9726 9.89909C24.9984 9.86842 25.0225 9.83623 25.0445 9.80267L26.481 7.61354C27.4992 6.06185 26.3861 4.00008 24.5301 4.00008ZM10.5415 12.9255C10.321 12.8968 10.1308 12.7567 10.038 12.5548L10.0362 12.5509L7.07549 6.00008H24.5301C24.7953 6.00008 24.9543 6.29462 24.8088 6.51629L23.4054 8.65506L22.6735 9.52211C20.8841 11.6419 18.3211 12.9578 15.5556 13.1766C14.2802 13.2774 12.9977 13.2451 11.729 13.08L10.5415 12.9255Z" fill="#FCA623"/>
<path d="M7.66651 21.6667C6.56194 21.6667 5.66651 22.5622 5.66651 23.6667C5.66651 24.7713 6.56194 25.6668 7.66651 25.6668C8.77108 25.6668 9.66651 24.7713 9.66651 23.6667C9.66651 22.5622 8.77108 21.6667 7.66651 21.6667Z" fill="#FCA623"/>
<path d="M20.3332 23.6667C20.3332 22.5622 21.2286 21.6667 22.3332 21.6667C23.4377 21.6667 24.3332 22.5622 24.3332 23.6667C24.3332 24.7713 23.4377 25.6668 22.3332 25.6668C21.2286 25.6668 20.3332 24.7713 20.3332 23.6667Z" fill="#FCA623"/>
</svg>
