<svg width="213" height="76" viewBox="0 0 213 76" fill="none" xmlns="http://www.w3.org/2000/svg">
<path d="M86.8028 47.7222V30.9167H95.7719V28.2778H84V47.7222H86.8028Z" fill="#767676"/>
<path d="M106.085 45.3056C103.955 45.3056 102.199 44.6111 100.816 43.2222C99.4144 41.8519 98.7137 40.1111 98.7137 38C98.7137 35.8889 99.4144 34.1481 100.816 32.7778C102.199 31.3889 103.955 30.6944 106.085 30.6944C108.215 30.6944 109.981 31.3889 111.383 32.7778C112.765 34.1481 113.457 35.8889 113.457 38C113.457 40.1111 112.765 41.8519 111.383 43.2222C109.981 44.6111 108.215 45.3056 106.085 45.3056ZM106.085 28C103.152 28 100.722 28.9444 98.7978 30.8333C96.8732 32.7222 95.9109 35.1111 95.9109 38C95.9109 40.8889 96.8732 43.2778 98.7978 45.1667C100.722 47.0556 103.152 48 106.085 48C109.019 48 111.448 47.0556 113.373 45.1667C115.297 43.2778 116.259 40.8889 116.259 38C116.259 35.1111 115.297 32.7222 113.373 30.8333C111.448 28.9444 109.019 28 106.085 28Z" fill="#767676"/>
<path d="M135.624 39.3889C135.325 41.1481 134.522 42.5741 133.214 43.6667C131.868 44.7593 130.261 45.3056 128.393 45.3056C126.263 45.3056 124.506 44.6111 123.123 43.2222C121.722 41.8519 121.021 40.1111 121.021 38C121.021 35.8889 121.722 34.1389 123.123 32.75C124.506 31.3796 126.263 30.6944 128.393 30.6944C130.261 30.6944 131.868 31.2407 133.214 32.3333C134.522 33.4259 135.325 34.8519 135.624 36.6111H138.427C138.109 34.0741 137.035 32.0093 135.204 30.4167C133.335 28.8056 131.065 28 128.393 28C125.459 28 123.03 28.9444 121.105 30.8333C119.181 32.7222 118.219 35.1111 118.219 38C118.219 40.8889 119.181 43.2778 121.105 45.1667C123.03 47.0556 125.459 48 128.393 48C131.065 48 133.335 47.1944 135.204 45.5833C137.035 43.9907 138.109 41.9259 138.427 39.3889H135.624Z" fill="#767676"/>
<path d="M139.555 28.2778V30.9167H145.441V47.7222H148.244V30.9167H154.13V28.2778H139.555Z" fill="#767676"/>
<path d="M169.4 28.2778L159.309 42.2222V28.2778H156.507V47.7222H158.749L168.839 33.7778V47.7222H171.642V28.2778H169.4Z" fill="#767676"/>
<path d="M184.75 45.3056C182.62 45.3056 180.864 44.6111 179.481 43.2222C178.08 41.8519 177.379 40.1111 177.379 38C177.379 35.8889 178.08 34.1481 179.481 32.7778C180.864 31.3889 182.62 30.6944 184.75 30.6944C186.881 30.6944 188.646 31.3889 190.048 32.7778C191.43 34.1481 192.122 35.8889 192.122 38C192.122 40.1111 191.43 41.8519 190.048 43.2222C188.646 44.6111 186.881 45.3056 184.75 45.3056ZM184.75 28C181.817 28 179.388 28.9444 177.463 30.8333C175.538 32.7222 174.576 35.1111 174.576 38C174.576 40.8889 175.538 43.2778 177.463 45.1667C179.388 47.0556 181.817 48 184.75 48C187.684 48 190.113 47.0556 192.038 45.1667C193.962 43.2778 194.925 40.8889 194.925 38C194.925 35.1111 193.962 32.7222 192.038 30.8333C190.113 28.9444 187.684 28 184.75 28Z" fill="#767676"/>
<path d="M210.197 28.2778V36.6111H200.668V28.2778H197.865V47.7222H200.668V39.25H210.197V47.7222H213V28.2778H210.197Z" fill="#767676"/>
<path d="M179.069 10.0154C177.621 9.92471 176.505 10.2355 175.721 10.9477C174.951 11.6598 174.566 12.7087 174.566 14.0942H173V15.9394H174.566V23.8058H176.524V15.9394H179.069V14.0942H176.524C176.524 13.2396 176.72 12.631 177.112 12.2684C177.516 11.9059 178.169 11.7699 179.069 11.8605V10.0154Z" fill="#FCA623"/>
<path d="M184.446 22.116C183.52 22.116 182.756 21.8181 182.156 21.2225C181.555 20.6269 181.255 19.8693 181.255 18.95C181.255 18.0306 181.555 17.2731 182.156 16.6775C182.756 16.0818 183.52 15.784 184.446 15.784C185.373 15.784 186.137 16.0818 186.737 16.6775C187.338 17.2731 187.638 18.0306 187.638 18.95C187.638 19.8693 187.338 20.6269 186.737 21.2225C186.137 21.8181 185.373 22.116 184.446 22.116ZM184.446 13.9C182.958 13.9 181.732 14.3791 180.766 15.3373C179.787 16.2825 179.297 17.4868 179.297 18.95C179.297 20.4132 179.787 21.6174 180.766 22.5627C181.732 23.5209 182.958 24 184.446 24C185.934 24 187.161 23.5209 188.127 22.5627C189.106 21.6174 189.596 20.4132 189.596 18.95C189.596 17.4868 189.106 16.2825 188.127 15.3373C187.161 14.3791 185.934 13.9 184.446 13.9Z" fill="#FCA623"/>
<path d="M196.109 22.116C195.183 22.116 194.419 21.8181 193.819 21.2225C193.218 20.6269 192.918 19.8693 192.918 18.95C192.918 18.0306 193.218 17.2731 193.819 16.6775C194.419 16.0818 195.183 15.784 196.109 15.784C197.036 15.784 197.8 16.0818 198.4 16.6775C199.001 17.2731 199.301 18.0306 199.301 18.95C199.301 19.8693 199.001 20.6269 198.4 21.2225C197.8 21.8181 197.036 22.116 196.109 22.116ZM196.109 13.9C194.622 13.9 193.395 14.3791 192.429 15.3373C191.45 16.2825 190.96 17.4868 190.96 18.95C190.96 20.4132 191.45 21.6174 192.429 22.5627C193.395 23.5209 194.622 24 196.109 24C197.597 24 198.824 23.5209 199.79 22.5627C200.769 21.6174 201.259 20.4132 201.259 18.95C201.259 17.4868 200.769 16.2825 199.79 15.3373C198.824 14.3791 197.597 13.9 196.109 13.9Z" fill="#FCA623"/>
<path d="M207.812 22.1548C206.859 22.1548 206.082 21.857 205.482 21.2613C204.881 20.6657 204.581 19.8952 204.581 18.95C204.581 18.0047 204.881 17.2343 205.482 16.6386C206.082 16.043 206.859 15.7452 207.812 15.7452C208.764 15.7452 209.541 16.043 210.142 16.6386C210.742 17.2343 211.042 18.0047 211.042 18.95C211.042 19.8952 210.742 20.6657 210.142 21.2613C209.541 21.857 208.764 22.1548 207.812 22.1548ZM211.042 10.2096V15.3761C210.102 14.392 208.928 13.9 207.518 13.9C206.121 13.9 204.96 14.3791 204.033 15.3373C203.093 16.3084 202.623 17.5127 202.623 18.95C202.623 20.3873 203.093 21.5915 204.033 22.5627C204.96 23.5209 206.121 24 207.518 24C208.928 24 210.102 23.5079 211.042 22.5238V23.8058H213V10.2096H211.042Z" fill="#FCA623"/>
<path fill-rule="evenodd" clip-rule="evenodd" d="M37.9028 24.3202C30.3293 24.3583 24.2437 30.4145 24.32 38.2038C24.3964 45.4598 30.1767 51.5541 38.0363 51.5732C45.8197 51.5732 51.7145 45.098 51.5619 38.0705C51.8671 30.8144 45.6671 24.2631 37.9028 24.3202ZM46.9262 45.4217C43.2062 49.821 37.0634 50.7542 32.8284 48.2784C33.1734 48.1592 33.5093 48.0515 33.8367 47.9464C34.4505 47.7495 35.0347 47.5622 35.5945 47.3262C36.9871 46.7739 37.9982 45.7645 38.6087 44.4314C38.7796 44.071 38.9193 43.7865 38.9193 43.7865C38.9193 43.7865 39.8927 43.7865 40.3793 43.7865C42.326 43.7865 43.7976 42.6412 44.4462 41.0605C44.3833 41.0801 44.3245 41.0989 44.2688 41.1167C44.0537 41.1855 43.884 41.2397 43.7022 41.27C43.4651 41.3263 43.2296 41.391 42.9944 41.4557C42.4347 41.6095 41.876 41.763 41.2985 41.8032C40.6412 41.8476 39.406 41.8398 39.406 41.8398C39.406 41.8398 39.6973 41.0519 39.677 40.2987C39.6579 39.5369 39.448 39.1751 38.6087 39.3274C38.2825 39.3795 37.9386 39.3693 37.5463 39.3576C37.3649 39.3522 37.1731 39.3465 36.968 39.3465C38.5514 34.6234 39.0122 29.8955 34.2621 26.7532C37.219 25.0201 43.2825 26.0723 46.9453 30.4526C50.5508 34.7376 50.5889 41.0986 46.9262 45.4217ZM32.4385 35.0852C31.889 34.9133 31.2647 34.8162 30.6026 34.8162C29.5624 34.8162 28.6153 35.056 27.9056 35.4487C28.7021 34.8162 29.8175 34.1398 31.5223 34.1398C32.7454 34.1398 33.6697 34.4332 34.2621 34.8961C34.7104 35.2466 35.0782 35.6922 35.0782 36.2918C35.0782 37.1748 34.3645 37.8905 33.4841 37.8905C33.1218 37.8905 32.7877 37.7693 32.5199 37.565C33.0112 37.3831 33.4841 37.0297 33.4841 36.2918C33.4841 35.6966 32.9848 35.2346 32.4385 35.0852Z" fill="#FF9F0D"/>
<path fill-rule="evenodd" clip-rule="evenodd" d="M41.2531 21.7502L38 0L34.7553 21.6936C35.7617 21.5013 36.8005 21.4007 37.8628 21.4007C39.025 21.4007 40.159 21.5211 41.2531 21.7502ZM54.0239 34.7131C54.2214 35.7326 54.3249 36.7856 54.3249 37.8628C54.3249 39.04 54.2013 40.1883 53.9665 41.2955L76 38L54.0239 34.7131ZM41.2955 53.9665C40.1883 54.2013 39.04 54.3249 37.8628 54.3249C36.7856 54.3249 35.7326 54.2214 34.7131 54.0239L38 76L41.2955 53.9665ZM21.7502 41.2531C21.5211 40.159 21.4007 39.025 21.4007 37.8628C21.4007 36.8005 21.5013 35.7617 21.6936 34.7553L0 38L21.7502 41.2531Z" fill="#FF9F0D"/>
<path fill-rule="evenodd" clip-rule="evenodd" d="M20.4451 12.1602C20.5357 12.3617 20.6252 12.5486 20.7103 12.7263C20.9022 13.1271 21.072 13.4815 21.182 13.8531C22.0199 16.4962 24.0439 17.8968 26.4144 18.9193C28.3273 19.7513 29.921 20.9233 31.1457 22.4848C29.3253 23.2643 27.6735 24.3618 26.26 25.7074C25.4909 24.2484 24.3831 23.0137 23.1831 21.8115C20.3741 19.0098 19.6629 16.5021 20.4451 12.1602ZM24.3163 27.9182C22.972 27.3803 21.7614 26.56 20.6276 25.5715C18.2044 23.4557 15.3223 23.0633 12.1831 23.6605C12.0143 23.6918 11.8524 23.7553 11.6889 23.8193L11.6889 23.8194C11.5857 23.8598 11.4819 23.9005 11.3754 23.9335C11.3281 23.9481 11.2863 23.9605 11.2502 23.9711L11.2501 23.9711L11.2501 23.9712C11.1454 24.002 11.0892 24.0186 11.0891 24.0357C11.0889 24.0555 11.1641 24.0759 11.3267 24.12L11.3937 24.1382C11.7058 24.2235 11.9995 24.2918 12.3116 24.36C14.0739 24.7184 15.5609 25.5032 16.644 26.8682C17.1124 27.4608 17.5531 28.0876 17.9923 28.7123L17.9929 28.7131L17.9931 28.7133C18.1733 28.9697 18.3533 29.2257 18.5348 29.4788C19.4495 30.771 20.5829 31.7921 21.9457 32.5371C22.4917 30.8639 23.2978 29.3084 24.3163 27.9182ZM22.0665 43.1385C20.8562 43.9 19.4979 44.3558 18.1429 44.8105L18.1429 44.8105C17.7421 44.945 17.3417 45.0794 16.9455 45.2215C13.1967 46.5567 11.3043 49.4379 10.1328 52.9165C10.1328 52.9309 10.1712 52.8779 10.2339 52.7913C10.3747 52.5968 10.6388 52.2321 10.8716 52.0732C11.953 51.3353 13.2508 50.6677 14.4763 50.2637C16.1164 49.719 17.8647 49.5082 19.5949 49.3501C21.4312 49.1724 23.1452 48.7194 24.764 47.9847C23.6094 46.5472 22.6907 44.9123 22.0665 43.1385ZM27.1751 50.4211C27.0198 50.6392 26.8511 50.906 26.6571 51.2246C26.6196 51.2762 26.582 51.3278 26.5633 51.3793C26.474 51.7882 26.3673 52.1931 26.261 52.5968L26.261 52.5969C26.0544 53.3813 25.8491 54.1609 25.7747 54.9555L25.7647 55.0676L25.7438 55.3058C25.5524 57.4901 25.3641 59.6393 23.6531 61.3857C23.2777 61.7638 22.9209 62.1593 22.5643 62.5547L22.5642 62.5548C25.8123 61.8327 28.4408 60.3885 29.6424 57.4828C29.6932 57.3618 29.7435 57.2406 29.7938 57.1197C30.3817 55.7039 30.9585 54.3151 32.2663 53.3681C30.5263 52.7426 28.9258 51.8338 27.5228 50.6988C27.4056 50.6078 27.2897 50.5152 27.1751 50.4211ZM53.3814 32.715C55.4176 31.4552 56.8172 29.6419 57.8773 27.5252C59.0332 25.1811 60.6845 23.3959 63.3816 22.7829C63.5277 22.7567 63.6546 22.6834 63.8041 22.5969C63.861 22.564 63.9212 22.5292 63.987 22.4944C63.931 22.4599 63.8856 22.4255 63.8469 22.3961C63.7842 22.3485 63.7388 22.314 63.6935 22.314C60.8496 22.2059 58.1341 22.6386 55.8223 24.3877C55.5597 24.586 55.2993 24.7879 55.0391 24.9896L55.0391 24.9896C53.6927 26.0334 52.3506 27.0737 50.7229 27.6106C51.8881 29.1257 52.796 30.849 53.3814 32.715ZM49.5414 26.2365C50.4325 24.9689 51.0463 23.6007 51.0297 22.001C51.0231 21.6151 51.0261 21.2293 51.0291 20.8434V20.8433C51.0344 20.1681 51.0397 19.493 50.9931 18.8179C50.8647 16.8196 51.5432 15.122 52.827 13.6012C53.0427 13.3517 53.2459 13.0957 53.4623 12.8231C53.6139 12.6322 53.772 12.433 53.9457 12.2219C53.8912 12.2106 53.845 12.2001 53.8053 12.1911C53.6578 12.1578 53.6 12.1447 53.5423 12.1865C50.1861 13.4597 47.5269 15.3872 46.5549 18.977C46.1833 20.3529 45.5949 21.6358 44.653 22.7223C46.4941 23.5888 48.1491 24.7856 49.5414 26.2365ZM53.3282 43.3324C52.7305 45.1353 51.8138 46.7972 50.6433 48.254C52.6322 49.51 54.7987 49.941 57.1105 49.6787C59.3599 49.416 61.5154 49.6261 63.3274 51.4125C63.5763 51.6673 63.8626 51.8801 64.1865 52.1207C64.3301 52.2274 64.4811 52.3396 64.6395 52.4634C63.2961 48.5228 61.6404 46.7889 58.2664 45.7906C56.4699 45.2544 54.7589 44.6103 53.3282 43.3324ZM48.683 50.2973C47.0187 51.7528 45.047 52.8777 42.8751 53.5667C42.9765 53.7521 43.0989 53.9338 43.2213 54.1157L43.2213 54.1157C43.3371 54.2878 43.4531 54.46 43.5517 54.6359C43.6305 54.7446 43.729 54.8352 43.8274 54.9077C44.2141 55.1413 44.5953 55.3919 44.9777 55.6433L44.9779 55.6435C45.8419 56.2116 46.7123 56.7839 47.6679 57.1733C49.9722 58.134 51.7251 59.4752 52.572 61.7046C52.631 61.8496 53.0446 62.6466 53.1431 62.7735V62.0489C53.1431 61.7052 53.1485 61.3629 53.1538 61.022V61.0217C53.1662 60.2302 53.1785 59.4449 53.1234 58.6596C53.0053 56.9558 52.4538 55.3246 51.2524 53.9834C51.1359 53.8521 51.0183 53.7215 50.9007 53.591C50.0072 52.5988 49.1148 51.608 48.683 50.2973Z" fill="#C2C2C2"/>
<path fill-rule="evenodd" clip-rule="evenodd" d="M42.9443 35.0082C42.9537 35.0161 42.9351 35.0002 42.9443 35.0082C43.5571 34.8249 44.2535 34.7213 44.9919 34.7213C46.1521 34.7213 47.2085 34.9771 48 35.3959C47.1117 34.7213 45.8676 34 43.9661 34C42.602 34 41.571 34.3129 40.9103 34.8066C40.4102 35.1803 40 35.6556 40 36.2951C40 37.2367 40.796 38 41.7779 38C42.1821 38 42.5548 37.8707 42.8534 37.6529C42.3054 37.4588 41.7779 37.082 41.7779 36.2951C41.7779 35.6602 42.3349 35.1676 42.9443 35.0082Z" fill="#FF9F0D"/>
</svg>
