<svg width="27" height="25" viewBox="0 0 27 25" fill="none" xmlns="http://www.w3.org/2000/svg">
<path d="M25.4431 9.14609C25.3751 9.04409 25.3071 8.94209 25.2051 8.90809C25.3071 8.77209 25.3751 8.56809 25.3411 8.39808C25.3071 7.65008 24.9671 6.12006 23.3011 4.21604C21.6011 2.31202 20.1051 1.80202 19.3911 1.66602C19.2551 1.63202 19.1531 1.66602 19.0511 1.66602C19.0171 1.49602 18.9151 1.32601 18.779 1.22401C18.201 0.748007 16.841 0 14.291 0C11.741 0 10.381 0.782008 9.76896 1.22401C9.46296 1.46201 9.36095 1.83602 9.53096 2.17602L10.075 3.43403L13.475 11.6621C13.475 11.6961 13.509 11.7301 13.543 11.7641C13.475 11.7301 13.373 11.7301 13.271 11.7301L4.3289 12.5121L2.96889 12.6141C2.59489 12.6481 2.28888 12.9201 2.22088 13.2941C2.08488 14.0421 2.05088 15.6062 3.27489 17.8162C4.4649 20.0602 5.82492 20.8762 6.50493 21.1822C6.60693 21.2162 6.70893 21.2502 6.84493 21.2502C6.84493 21.2502 6.84493 21.2502 6.87893 21.2502C6.87893 21.4202 6.94693 21.5902 7.04893 21.7602C7.52494 22.3382 8.64695 23.4262 11.129 24.0042C12.013 24.2082 12.761 24.2762 13.407 24.2762C14.563 24.2762 15.345 24.0382 15.787 23.8342C15.889 23.8002 15.991 23.6982 16.059 23.6302C16.195 23.7322 16.365 23.8342 16.535 23.8342C16.603 23.8342 16.671 23.8342 16.739 23.8342C17.555 23.8342 19.017 23.5962 20.8871 22.2702C22.9611 20.8082 23.6411 19.3802 23.8791 18.6662C23.9131 18.5642 23.9131 18.4282 23.9131 18.3262C24.0831 18.2922 24.2531 18.2242 24.3891 18.0882C24.9331 17.5442 25.8511 16.2862 26.1231 13.7701C26.4631 11.2541 25.8511 9.7921 25.4431 9.14609ZM19.0851 2.41402C19.1191 2.34602 19.1871 2.31202 19.2211 2.34602C19.8671 2.48202 21.2271 2.92403 22.7571 4.65805C24.2871 6.39206 24.5931 7.75208 24.6271 8.43209C24.6271 8.50008 24.5931 8.53408 24.5251 8.56808L23.9811 8.77209C23.9131 8.09208 23.5731 6.80007 22.1791 5.20205C20.7851 3.60404 19.4931 3.12803 18.813 2.99203L19.0851 2.41402ZM24.0151 13.5321C23.7771 15.6062 22.9951 16.5922 22.6551 16.9322C22.6211 16.9662 22.5871 16.9662 22.5531 16.9322L18.575 14.6201L15.073 12.4101L19.0511 11.0841L23.3691 9.8601C23.4031 9.8601 23.4371 9.8601 23.4711 9.8941C23.7431 10.3021 24.2531 11.4581 24.0151 13.5321ZM18.609 3.63804C19.0511 3.70604 20.2751 4.08004 21.7031 5.67806C23.0971 7.24207 23.3011 8.50008 23.3351 8.94209C23.3351 8.97609 23.3011 9.01009 23.2671 9.01009L18.8811 10.4381L14.903 11.5601L16.569 7.71808L18.541 3.67204C18.541 3.63804 18.575 3.63804 18.609 3.63804ZM10.109 1.93802C10.075 1.87002 10.109 1.80202 10.143 1.76802C10.687 1.36001 11.911 0.680007 14.223 0.680007C16.535 0.680007 17.759 1.36001 18.269 1.76802C18.303 1.80202 18.337 1.87002 18.303 1.93802L18.065 2.48202C17.487 2.07402 16.331 1.46201 14.223 1.46201C12.115 1.46201 10.891 2.07402 10.347 2.48202L10.109 1.93802ZM10.653 3.19603C10.653 3.16203 10.653 3.12803 10.687 3.09403C11.061 2.82203 12.149 2.14202 14.257 2.14202C16.297 2.14202 17.351 2.72003 17.793 3.09403C17.827 3.12803 17.827 3.16203 17.827 3.19603L15.991 7.44607L14.087 11.3901L10.653 3.19603ZM14.155 12.1721C14.155 12.2061 14.155 12.2061 14.155 12.2401C14.155 12.2401 14.121 12.2401 14.087 12.2741C14.053 12.2741 14.053 12.2741 14.019 12.2401C14.019 12.2061 14.019 12.1721 13.985 12.1381L13.951 12.1041C13.985 12.1041 14.053 12.1381 14.087 12.1381C14.121 12.1721 14.121 12.1721 14.155 12.1721ZM13.747 13.1921L14.597 17.3062L15.311 21.7262C15.311 21.7602 15.311 21.7942 15.277 21.8282C14.869 22.0322 13.645 22.4062 11.605 21.9302C9.56496 21.4542 8.68095 20.5702 8.37494 20.1962C8.34094 20.1622 8.34094 20.1282 8.37494 20.0942L11.129 16.3882L13.747 13.1921ZM6.94693 20.5362C6.91293 20.5702 6.84493 20.6042 6.77693 20.5702C6.30092 20.3662 5.00891 19.6182 3.8529 17.4762C2.76489 15.4362 2.76489 14.0421 2.90089 13.3961C2.90089 13.3281 2.96889 13.2941 3.03689 13.2941L3.6489 13.2601C3.5469 13.9401 3.5809 15.3002 4.56691 17.1362C5.58692 19.0062 6.67493 19.7542 7.32093 20.0602L6.94693 20.5362ZM5.14491 16.8302C4.1589 14.9941 4.2269 13.7361 4.2949 13.2601C4.2949 13.2261 4.3289 13.1921 4.3629 13.1921L13.271 12.4441C13.237 12.4781 13.203 12.4781 13.203 12.5121L10.619 15.9802L7.79694 19.4822C7.76294 19.5162 7.72894 19.5162 7.69494 19.5162C7.25293 19.3122 6.16492 18.6662 5.14491 16.8302ZM15.481 23.2222C15.005 23.4602 13.611 23.9022 11.231 23.3582C8.95295 22.8142 7.93294 21.8622 7.52494 21.3522C7.49093 21.3182 7.49093 21.2502 7.52494 21.1822L7.89894 20.7062C8.34094 21.2502 9.36095 22.1002 11.401 22.5762C12.183 22.7462 12.829 22.8142 13.407 22.8142C14.359 22.8142 15.005 22.6102 15.413 22.4402L15.515 23.0522C15.583 23.1542 15.549 23.2222 15.481 23.2222ZM16.195 21.6922L15.277 17.1702L14.597 13.0901L18.235 15.1982L22.0091 17.6122C22.0431 17.6462 22.0431 17.6802 22.0431 17.7142C21.9071 18.1562 21.3971 19.3122 19.6631 20.5362C17.929 21.7262 16.705 21.8282 16.229 21.7942C16.229 21.7602 16.195 21.7602 16.195 21.6922ZM20.5131 21.7262C18.609 23.0522 17.215 23.1882 16.569 23.1542C16.501 23.1542 16.467 23.1202 16.433 23.0522L16.331 22.4402C16.365 22.4402 16.365 22.4402 16.399 22.4402C17.113 22.4402 18.405 22.2362 20.0711 21.0802C21.8051 19.8562 22.4511 18.6662 22.6551 18.0202L23.1651 18.3262C23.2331 18.3602 23.2331 18.4282 23.2331 18.4962C23.0971 19.0062 22.5191 20.3322 20.5131 21.7262ZM25.4771 13.7021C25.2051 16.0142 24.3891 17.1362 23.9131 17.6122C23.8791 17.6462 23.8111 17.6802 23.7431 17.6462L23.2331 17.3402C23.7091 16.8302 24.4571 15.7082 24.6951 13.6341C24.9331 11.5261 24.4571 10.2681 24.1171 9.6561L24.6951 9.48609C24.7631 9.45209 24.8311 9.48609 24.8651 9.5541C25.2051 10.0981 25.7491 11.3901 25.4771 13.7021Z" fill="#FF9F0D"/>
<path d="M15.6847 2.8562C15.0047 2.8562 14.4607 3.40021 14.4607 4.08021C14.4607 4.76022 15.0047 5.30423 15.6847 5.30423C16.3647 5.30423 16.9087 4.76022 16.9087 4.08021C16.9087 3.40021 16.3647 2.8562 15.6847 2.8562ZM15.6847 4.65822C15.3787 4.65822 15.1407 4.42022 15.1407 4.11421C15.1407 3.80821 15.3787 3.57021 15.6847 3.57021C15.9907 3.57021 16.2287 3.80821 16.2287 4.11421C16.2287 4.42022 15.9907 4.65822 15.6847 4.65822Z" fill="#FF9F0D"/>
<path d="M14.0879 5.67798C13.4419 5.67798 12.9319 6.18798 12.9319 6.83399C12.9319 7.48 13.4419 7.99 14.0879 7.99C14.7339 7.99 15.2439 7.48 15.2439 6.83399C15.2439 6.18798 14.7339 5.67798 14.0879 5.67798ZM14.0539 7.31C13.7819 7.31 13.5779 7.10599 13.5779 6.83399C13.5779 6.56199 13.7819 6.35799 14.0539 6.35799C14.3259 6.35799 14.5299 6.56199 14.5299 6.83399C14.5299 7.10599 14.3259 7.31 14.0539 7.31Z" fill="#FF9F0D"/>
<path d="M20.1394 5.64417C19.7654 5.23617 19.1193 5.20217 18.7113 5.57617C18.5073 5.74617 18.4053 6.01818 18.3713 6.25618C18.3713 6.52818 18.4393 6.80018 18.6093 6.97019C18.7793 7.20819 19.0513 7.34419 19.3233 7.34419C19.3573 7.34419 19.3573 7.34419 19.3913 7.34419C19.6294 7.34419 19.8674 7.24219 20.0714 7.07219C20.4794 6.69818 20.5134 6.05218 20.1394 5.64417ZM19.5614 6.63018C19.4934 6.69818 19.4253 6.73218 19.3233 6.69818C19.2213 6.69818 19.1533 6.66418 19.0853 6.59618C19.0173 6.52818 18.9833 6.46018 19.0173 6.35818C19.0513 6.25618 19.0853 6.15418 19.1533 6.12018C19.2213 6.05218 19.2893 6.05218 19.3573 6.05218C19.4594 6.05218 19.5274 6.08618 19.5954 6.15418C19.7314 6.29018 19.6974 6.49418 19.5614 6.63018Z" fill="#FF9F0D"/>
<path d="M22.8934 13.9739C22.6554 13.7359 22.3834 13.5659 22.0774 13.5319C21.4313 13.4639 20.8193 13.9399 20.7513 14.5859C20.6833 15.2319 21.1593 15.8439 21.8054 15.9119C21.8394 15.9119 21.9074 15.9119 21.9414 15.9119C22.5534 15.9119 23.0634 15.4699 23.1314 14.8579C23.1654 14.5519 23.0634 14.2119 22.8934 13.9739ZM21.8734 15.2659C21.5674 15.2319 21.3633 14.9599 21.3973 14.6879C21.4313 14.3819 21.7034 14.1779 21.9754 14.2119C22.1114 14.2119 22.2474 14.3139 22.3154 14.4159C22.3834 14.5179 22.4514 14.6539 22.4514 14.7899C22.4174 15.0959 22.1454 15.2999 21.8734 15.2659Z" fill="#FF9F0D"/>
<path d="M23.1996 10.914C23.0636 10.71 22.8256 10.574 22.5536 10.54C22.2816 10.506 22.0096 10.574 21.8056 10.744C21.6016 10.914 21.4656 11.152 21.4316 11.424C21.3976 11.696 21.4656 11.968 21.6356 12.172C21.8056 12.376 22.0436 12.512 22.3156 12.546C22.3496 12.546 22.3836 12.546 22.4176 12.546C22.6556 12.546 22.8596 12.478 23.0296 12.342C23.2336 12.172 23.3696 11.934 23.4036 11.662C23.4376 11.39 23.3696 11.118 23.1996 10.914ZM22.6216 11.798C22.5536 11.866 22.4516 11.866 22.3836 11.866C22.2816 11.866 22.2136 11.798 22.1796 11.73C22.1116 11.662 22.1116 11.56 22.1116 11.492C22.1116 11.39 22.1796 11.322 22.2476 11.288C22.3156 11.22 22.4176 11.22 22.4856 11.22C22.5876 11.22 22.6556 11.288 22.6896 11.356C22.7236 11.424 22.7576 11.526 22.7576 11.594C22.7576 11.662 22.6896 11.764 22.6216 11.798Z" fill="#FF9F0D"/>
<path d="M18.1001 15.9124C17.8961 15.6404 17.6581 15.4704 17.3521 15.4364C17.0461 15.3684 16.7401 15.4364 16.4681 15.6404C15.9581 16.0144 15.8221 16.7284 16.1961 17.2724C16.4001 17.5784 16.7741 17.7484 17.1481 17.7484C17.3861 17.7484 17.6241 17.6804 17.8281 17.5444C18.1001 17.3744 18.2701 17.1024 18.3041 16.7964C18.3721 16.4904 18.3041 16.1844 18.1001 15.9124ZM17.6241 16.6944C17.5901 16.8304 17.5221 16.9324 17.4201 17.0004C17.2161 17.1704 16.9101 17.1024 16.7401 16.8644C16.6041 16.6604 16.6381 16.3544 16.8761 16.1844C17.0801 16.0484 17.3861 16.0824 17.5561 16.3204C17.6241 16.4224 17.6581 16.5584 17.6241 16.6944Z" fill="#FF9F0D"/>
<path d="M13.2716 18.9042C12.9996 18.8362 12.7276 18.8702 12.5236 19.0402C12.2856 19.1762 12.1496 19.4142 12.0816 19.6522C11.9116 20.1962 12.2516 20.7402 12.7956 20.8762C12.8636 20.9102 12.9656 20.9102 13.0336 20.9102C13.4756 20.9102 13.9177 20.6042 14.0197 20.1282C14.1557 19.5842 13.8157 19.0402 13.2716 18.9042ZM13.3056 19.9922C13.2716 20.1622 13.1016 20.2642 12.8976 20.2302C12.7956 20.1962 12.7276 20.1622 12.6936 20.0942C12.6596 20.0262 12.6936 19.9242 12.6936 19.8222C12.7276 19.7202 12.7616 19.6522 12.8296 19.6182C12.8976 19.5842 12.9316 19.5842 12.9996 19.5842C13.0336 19.5842 13.0676 19.5842 13.0676 19.5842C13.2376 19.6182 13.3396 19.7882 13.3056 19.9922Z" fill="#FF9F0D"/>
<path d="M7.25372 14.0424C6.94772 13.4644 6.19971 13.2263 5.6217 13.5664C5.0437 13.8724 4.80569 14.6204 5.1457 15.1984C5.3497 15.6064 5.7917 15.8444 6.19971 15.8444C6.40371 15.8444 6.57371 15.8104 6.77771 15.7084C7.35572 15.3684 7.55972 14.6204 7.25372 14.0424ZM6.43771 15.0964C6.16571 15.2324 5.85971 15.1304 5.7237 14.8924C5.5877 14.6204 5.6897 14.3144 5.92771 14.1784C6.19971 14.0424 6.50571 14.1444 6.64171 14.3824C6.77771 14.6204 6.67571 14.9604 6.43771 15.0964Z" fill="#FF9F0D"/>
<path d="M10.381 14.1781C10.245 13.9061 9.97303 13.7021 9.70103 13.6001C9.39503 13.4981 9.08902 13.5321 8.81702 13.7021C8.54502 13.8381 8.34102 14.1101 8.23902 14.3821C8.13702 14.6881 8.17102 14.9941 8.34102 15.2661C8.47702 15.5721 8.71502 15.7761 9.02102 15.8441C9.12303 15.8781 9.25903 15.8781 9.36103 15.8781C9.56503 15.8781 9.73503 15.8441 9.90503 15.7421C10.177 15.6061 10.381 15.3341 10.483 15.0621C10.585 14.7561 10.551 14.4501 10.381 14.1781ZM9.56503 15.1641C9.46303 15.2321 9.32703 15.2321 9.19103 15.1981C9.05502 15.1641 8.95302 15.0621 8.91902 14.9601C8.88502 14.8581 8.85102 14.7221 8.88502 14.5861C8.91902 14.4501 9.02102 14.3481 9.12302 14.3141C9.22503 14.2461 9.36103 14.2461 9.49703 14.2801C9.63303 14.3141 9.73503 14.4161 9.76903 14.5181C9.90503 14.7561 9.80303 15.0621 9.56503 15.1641Z" fill="#FF9F0D"/>
<path d="M11.6394 9.41821L6.1653 2.34614L5.31529 1.25813C5.07729 0.952127 4.70329 0.850126 4.36328 1.02013C3.68328 1.32613 2.35726 2.14214 1.13325 4.35216C-0.0907604 6.56218 -0.0567601 8.1602 0.0452409 8.90821C0.113242 9.28221 0.385244 9.55421 0.759248 9.58821L2.11926 9.69022L10.9594 10.6422C11.0274 10.6422 11.0614 10.6422 11.0614 10.6422C11.3334 10.6422 11.5714 10.5062 11.7074 10.2682C11.8434 9.99622 11.8434 9.69021 11.6394 9.41821ZM1.43925 8.97621L0.861249 8.90821C0.793248 8.90821 0.759248 8.84021 0.725248 8.80621C0.623247 8.1602 0.623247 6.73218 1.71126 4.69216C2.83327 2.65214 4.02328 1.90414 4.60129 1.66613C4.66929 1.63213 4.73729 1.66613 4.77129 1.70013L5.14529 2.17614C4.49929 2.48214 3.41127 3.23015 2.39126 5.06617C1.37125 6.93619 1.33725 8.2622 1.43925 8.97621ZM11.1634 9.92822C11.1294 9.96222 11.1294 9.96222 11.0954 9.96222L2.25526 9.01021C2.18726 9.01021 2.15326 8.97621 2.15326 8.94221C2.08526 8.4662 2.01726 7.20819 3.03727 5.37217C4.05728 3.53615 5.14529 2.92415 5.5533 2.72014C5.5873 2.72014 5.6213 2.72014 5.6553 2.75415L11.1634 9.82622C11.1974 9.86022 11.1974 9.89422 11.1634 9.92822Z" fill="#FF9F0D"/>
<path d="M6.57374 4.69223C6.47174 4.38623 6.26774 4.11423 5.99574 3.97822C5.72374 3.80822 5.38373 3.77422 5.07773 3.87622C4.77173 3.97822 4.49972 4.18223 4.36372 4.45423C4.19372 4.72623 4.15972 5.06624 4.26172 5.37224C4.36372 5.67824 4.56772 5.95024 4.83973 6.12025C5.00973 6.22225 5.21373 6.25625 5.41773 6.25625C5.85974 6.25625 6.26774 6.01824 6.47174 5.61024C6.64174 5.33824 6.67575 4.99823 6.57374 4.69223ZM5.85974 5.30424C5.72374 5.57624 5.38373 5.64424 5.14573 5.50824C5.00973 5.44024 4.94173 5.33824 4.90773 5.20224C4.87373 5.06624 4.90773 4.93023 4.97573 4.79423C5.04373 4.65823 5.14573 4.59023 5.28173 4.55623C5.31573 4.55623 5.38373 4.52223 5.41773 4.52223C5.51973 4.52223 5.58773 4.55623 5.65574 4.59023C5.79174 4.65823 5.85974 4.76023 5.89374 4.89623C5.92774 5.03224 5.92774 5.16824 5.85974 5.30424Z" fill="#FF9F0D"/>
<path d="M7.11818 7.10585C6.64218 6.76584 6.03017 6.93584 5.75817 7.44585C5.62217 7.68385 5.58817 7.95585 5.69017 8.22786C5.75817 8.49986 5.92817 8.70386 6.16617 8.83986C6.30217 8.90786 6.47218 8.97586 6.64218 8.97586C6.74418 8.97586 6.84618 8.97586 6.91418 8.94186C7.18618 8.87386 7.39018 8.70386 7.52619 8.46586C7.79819 7.98985 7.62819 7.37785 7.11818 7.10585ZM6.94818 8.05785C6.84618 8.22786 6.67618 8.26186 6.50618 8.19386C6.43817 8.15986 6.37017 8.09185 6.33617 7.98985C6.30217 7.88785 6.33617 7.81985 6.37017 7.75185C6.40417 7.68385 6.47218 7.61585 6.57418 7.58185C6.57418 7.61585 6.60818 7.58185 6.64218 7.58185C6.71018 7.58185 6.74418 7.58185 6.81218 7.61585C6.98218 7.71785 7.01618 7.88785 6.94818 8.05785Z" fill="#FF9F0D"/>
<path d="M4.22771 7.58196L3.8197 6.73195C3.7517 6.56195 3.5477 6.49395 3.3777 6.56195C3.2077 6.62995 3.1397 6.83395 3.2077 7.00395L3.6157 7.85396C3.6837 7.98996 3.7857 8.05796 3.92171 8.05796C3.95571 8.05796 4.02371 8.05796 4.05771 8.02396C4.22771 7.95596 4.29571 7.75196 4.22771 7.58196Z" fill="#FF9F0D"/>
<path d="M13.2033 4.82829L12.7953 3.97829C12.7273 3.80828 12.5233 3.74028 12.3533 3.80828C12.1833 3.87629 12.1153 4.08029 12.1833 4.25029L12.5913 5.1003C12.6593 5.2363 12.7613 5.3043 12.8973 5.3043C12.9313 5.3043 12.9993 5.3043 13.0333 5.2703C13.2033 5.2023 13.3053 4.9983 13.2033 4.82829Z" fill="#FF9F0D"/>
<path d="M19.1886 9.07805L18.7806 8.22804C18.7126 8.05804 18.5086 7.99004 18.3386 8.05804C18.1686 8.12604 18.1006 8.33004 18.1686 8.50005L18.5766 9.35005C18.6446 9.48605 18.7466 9.55406 18.8826 9.55406C18.9166 9.55406 18.9846 9.55406 19.0186 9.52006C19.1886 9.45206 19.2566 9.24805 19.1886 9.07805Z" fill="#FF9F0D"/>
<path d="M11.029 20.162L10.621 19.312C10.553 19.142 10.349 19.074 10.179 19.142C10.009 19.21 9.94097 19.414 10.009 19.584L10.417 20.434C10.485 20.57 10.587 20.638 10.723 20.638C10.757 20.638 10.825 20.638 10.859 20.604C11.029 20.536 11.097 20.332 11.029 20.162Z" fill="#FF9F0D"/>
<path d="M17.9983 19.414L17.0463 19.244C16.8763 19.21 16.6723 19.346 16.6383 19.516C16.6043 19.686 16.7403 19.89 16.9103 19.924L17.8623 20.094C17.8963 20.094 17.8963 20.094 17.9303 20.094C18.1003 20.094 18.2363 19.992 18.2703 19.822C18.3383 19.618 18.2023 19.448 17.9983 19.414Z" fill="#FF9F0D"/>
<path d="M19.5601 13.0561L18.6081 12.8861C18.4381 12.8521 18.2341 12.9881 18.2001 13.1581C18.1661 13.3281 18.3021 13.5321 18.4721 13.5661L19.4241 13.7361C19.4581 13.7361 19.4581 13.7361 19.4921 13.7361C19.6621 13.7361 19.7981 13.6341 19.8321 13.4641C19.8661 13.2941 19.7301 13.0901 19.5601 13.0561Z" fill="#FF9F0D"/>
<path d="M21.9073 7.75215L20.9552 7.58215C20.7852 7.54815 20.5812 7.68415 20.5472 7.85415C20.5132 8.05815 20.6492 8.22816 20.8192 8.26216L21.7712 8.43216C21.8053 8.43216 21.8052 8.43216 21.8392 8.43216C22.0093 8.43216 22.1453 8.33016 22.1793 8.16015C22.2133 7.99015 22.0773 7.78615 21.9073 7.75215Z" fill="#FF9F0D"/>
<path d="M13.2033 17.2045L12.7953 16.3545C12.7273 16.1845 12.5233 16.1165 12.3533 16.1845C12.1833 16.2525 12.1153 16.4565 12.1833 16.6265L12.5913 17.4765C12.6593 17.6125 12.7613 17.6805 12.8973 17.6805C12.9313 17.6805 12.9993 17.6805 13.0333 17.6465C13.2033 17.5785 13.2713 17.3745 13.2033 17.2045Z" fill="#FF9F0D"/>
<path d="M7.93419 16.7622C7.83219 16.6262 7.59419 16.5922 7.45819 16.7282L6.71018 17.3402C6.57418 17.4422 6.54018 17.6802 6.67618 17.8162C6.74418 17.8842 6.84618 17.9522 6.94818 17.9522C7.01618 17.9522 7.08418 17.9182 7.15218 17.8842L7.90019 17.2722C8.03619 17.1362 8.07019 16.9322 7.93419 16.7622Z" fill="#FF9F0D"/>
<path d="M17.3175 9.58811C17.2155 9.45211 16.9775 9.41811 16.8415 9.55411L16.0935 10.1321C15.9575 10.2681 15.9235 10.4721 16.0595 10.6081C16.1275 10.6761 16.2295 10.7441 16.3315 10.7441C16.3995 10.7441 16.4675 10.7101 16.5355 10.6761L17.2835 10.0641C17.4195 9.96211 17.4535 9.72411 17.3175 9.58811Z" fill="#FF9F0D"/>
<path d="M20.3446 17.7824C20.2426 17.6464 20.0046 17.6124 19.8686 17.7484L19.1206 18.3605C18.9846 18.4625 18.9506 18.7005 19.0866 18.8365C19.1546 18.9045 19.2566 18.9385 19.3586 18.9385C19.4266 18.9385 19.4946 18.9045 19.5626 18.8705L20.3106 18.2584C20.4466 18.1564 20.4806 17.9184 20.3446 17.7824Z" fill="#FF9F0D"/>
</svg>
