<svg width="28" height="28" viewBox="0 0 28 28" fill="none" xmlns="http://www.w3.org/2000/svg">
<path d="M12.5188 5.57314H15.5313V8.82808H0.5V5.57314H10.7265H11.0437L11.1789 5.28617L12.6234 2.21883L17.867 0.628271L18.0474 1.29865L13.2391 2.7571L13.0266 2.82157L12.9319 3.02252L12.0665 4.86009L11.7306 5.57314H12.5188Z" stroke="#FF9F0D"/>
<path d="M11.3828 22.2656H25.1523V22.8203H11.3828V22.2656Z" stroke="#FF9F0D"/>
<path d="M13.4321 11.6698C9.8468 12.9069 7.25979 16.2628 7.25979 20.2109V25.6523C7.25979 26.0192 7.31611 26.3733 7.42028 26.707H3.52488L2.10322 11.3828H13.4535L13.4321 11.6698Z" stroke="#FF9F0D"/>
<path d="M19.8929 13.7148C23.4925 13.7148 26.4186 16.3795 26.6869 19.7109H9.84819C10.1165 16.3795 13.0426 13.7148 16.6422 13.7148H19.8929Z" stroke="#FF9F0D"/>
<path d="M10.9536 26.7068C10.3122 26.7068 9.82812 26.2125 9.82812 25.6521V25.3748H26.7069V25.6521C26.7069 26.2125 26.2228 26.7068 25.5814 26.7068H10.9536Z" stroke="#FF9F0D"/>
</svg>
