<svg width="23" height="23" viewBox="0 0 23 23" fill="none" xmlns="http://www.w3.org/2000/svg">
<path d="M0.5 11.1301C0.5 5.25929 5.25929 0.5 11.1301 0.5C17.0009 0.5 21.7602 5.25929 21.7602 11.1301C21.7602 17.0009 17.0009 21.7602 11.1301 21.7602C5.25929 21.7602 0.5 17.0009 0.5 11.1301ZM7.06846 11.1301C7.06846 13.3734 8.88707 15.1917 11.1301 15.1917C13.3731 15.1917 15.1917 13.3734 15.1917 11.1301C15.1917 8.88706 13.3731 7.06846 11.1301 7.06846C8.88706 7.06846 7.06846 8.88706 7.06846 11.1301Z" fill="white" stroke="#FF9F0D"/>
<mask id="path-2-inside-1_2_632" fill="white">
<path d="M11.1324 16.8726C9.60649 16.8726 8.07988 16.0981 7.12695 14.9143C7.87558 16.4612 9.38771 17.5864 11.1324 17.5864C12.8776 17.5864 14.3898 16.4611 15.1381 14.9143C14.1852 16.0979 12.6588 16.8726 11.1324 16.8726Z"/>
</mask>
<path d="M11.1324 16.8726C9.60649 16.8726 8.07988 16.0981 7.12695 14.9143C7.87558 16.4612 9.38771 17.5864 11.1324 17.5864C12.8776 17.5864 14.3898 16.4611 15.1381 14.9143C14.1852 16.0979 12.6588 16.8726 11.1324 16.8726Z" fill="#FF9F0D"/>
<path d="M7.12695 14.9143L7.90593 14.2872L6.22683 15.3499L7.12695 14.9143ZM15.1381 14.9143L16.0383 15.3498L14.3592 14.2872L15.1381 14.9143ZM11.1324 15.8726C9.92716 15.8726 8.68058 15.2496 7.90593 14.2872L6.34798 15.5414C7.47918 16.9466 9.28581 17.8726 11.1324 17.8726V15.8726ZM6.22683 15.3499C7.11219 17.1793 8.93933 18.5864 11.1324 18.5864V16.5864C9.83609 16.5864 8.63897 15.743 8.02708 14.4787L6.22683 15.3499ZM11.1324 18.5864C13.326 18.5864 15.1532 17.1794 16.0383 15.3498L14.238 14.4788C13.6264 15.7429 12.4293 16.5864 11.1324 16.5864V18.5864ZM14.3592 14.2872C13.5845 15.2494 12.3381 15.8726 11.1324 15.8726V17.8726C12.9796 17.8726 14.7859 16.9463 15.9171 15.5414L14.3592 14.2872Z" fill="#FF9F0D" mask="url(#path-2-inside-1_2_632)"/>
<mask id="path-4-inside-2_2_632" fill="white">
<path d="M11.1268 2.15885C13.9057 2.15885 16.6862 3.48398 18.4738 5.52614C17.0331 2.99761 14.2837 1.28735 11.1268 1.28735C7.97003 1.28735 5.22068 2.99761 3.78003 5.52614C5.56776 3.48398 8.3478 2.15885 11.1268 2.15885Z"/>
</mask>
<path d="M11.1268 2.15885C13.9057 2.15885 16.6862 3.48398 18.4738 5.52614C17.0331 2.99761 14.2837 1.28735 11.1268 1.28735C7.97003 1.28735 5.22068 2.99761 3.78003 5.52614C5.56776 3.48398 8.3478 2.15885 11.1268 2.15885Z" fill="#FF9F0D"/>
<path d="M18.4738 5.52614L17.7213 6.18477L19.3426 5.03108L18.4738 5.52614ZM3.78003 5.52614L2.91116 5.03109L4.53245 6.18482L3.78003 5.52614ZM11.1268 3.15885C13.6058 3.15885 16.1159 4.35067 17.7213 6.18477L19.2262 4.8675C17.2566 2.61729 14.2056 1.15885 11.1268 1.15885V3.15885ZM19.3426 5.03108C17.7287 2.19846 14.6522 0.287354 11.1268 0.287354V2.28735C13.9152 2.28735 16.3375 3.79675 17.6049 6.02119L19.3426 5.03108ZM11.1268 0.287354C7.60149 0.287354 4.52507 2.19847 2.91116 5.03109L4.6489 6.02118C5.91629 3.79674 8.33857 2.28735 11.1268 2.28735V0.287354ZM4.53245 6.18482C6.13813 4.35063 8.64776 3.15885 11.1268 3.15885V1.15885C8.04784 1.15885 4.99739 2.61734 3.02761 4.86746L4.53245 6.18482Z" fill="#FF9F0D" mask="url(#path-4-inside-2_2_632)"/>
<path d="M4.27558 13.5501L4.27552 13.55L4.27558 13.5501Z" fill="#FF9F0D" stroke="#FF9F0D"/>
<path d="M6.24758 5.29677L6.2477 5.29674C6.24766 5.29675 6.24762 5.29676 6.24758 5.29677ZM6.24758 5.29677C6.24732 5.29684 6.24706 5.29691 6.2468 5.29698L6.24758 5.29677ZM16.254 7.57041C16.2542 7.81684 16.4526 8.01675 16.697 8.01649C16.9414 8.01649 17.1393 7.81658 17.1389 7.57015L16.254 7.57041ZM16.254 7.57041L16.2525 6.23145L16.254 7.57041ZM16.754 7.56997V7.56983V7.56997ZM16.7525 6.23145C16.7525 6.2315 16.7525 6.23154 16.7525 6.23158V6.23145Z" fill="#FF9F0D" stroke="#FF9F0D"/>
<path d="M11.8574 5.33566C11.7347 5.12128 11.8039 4.84881 12.0121 4.72751L13.1411 4.0684M11.8574 5.33566L13.3327 4.41371M11.8574 5.33566C11.98 5.55026 12.2478 5.62591 12.4557 5.50461M11.8574 5.33566L13.3327 4.41371M13.1411 4.0684L13.3646 4.4514L13.3646 4.45144L13.3931 4.50027L13.3932 4.5002L13.3647 4.45139L13.3647 4.45135L13.1411 4.0684ZM13.1411 4.0684C13.349 3.9471 13.6168 4.02253 13.7395 4.23735C13.8619 4.45173 13.7927 4.7242 13.5848 4.8455L12.4557 5.50461M12.4557 5.50461L12.2322 5.12143L12.2321 5.12121L12.2038 5.07272M12.4557 5.50461L12.2321 5.1215L12.232 5.12128L12.2037 5.07281L12.2038 5.07272M12.2038 5.07272C12.2062 5.07133 12.2086 5.07009 12.2111 5.069C12.2112 5.06896 12.2113 5.06893 12.2114 5.06889C12.2285 5.0614 12.2468 5.06106 12.2605 5.06492C12.2756 5.0692 12.2863 5.07865 12.2913 5.08731C12.2914 5.08739 12.2914 5.08748 12.2915 5.08756C12.2965 5.0965 12.2982 5.10838 12.2952 5.11991C12.2922 5.13175 12.2827 5.14839 12.2641 5.15931L13.3858 4.50454L13.3858 4.50449L13.3929 4.50036C13.3905 4.50178 13.388 4.50305 13.3856 4.50416C13.3856 4.50417 13.3856 4.50418 13.3856 4.5042C13.3462 4.52238 13.3138 4.50014 13.3053 4.4853C13.3053 4.48529 13.3053 4.48527 13.3053 4.48526C13.3002 4.47635 13.2985 4.46453 13.3014 4.45312C13.3044 4.44145 13.3139 4.42472 13.3327 4.41371M12.2038 5.07272L12.2109 5.0686L12.2111 5.06846L13.3327 4.41371M13.3327 4.41371C13.3327 4.41371 13.3327 4.4137 13.3327 4.4137C13.3328 4.41367 13.3328 4.41365 13.3328 4.41363L13.3327 4.41371ZM1.68794 5.71163L1.67404 5.73497L1.68794 5.71163Z" fill="#FF9F0D" stroke="#FF9F0D"/>
<path d="M2.45027 9.73406C2.66239 9.85406 2.93377 9.7828 3.0562 9.57489L3.72158 8.44541C3.84427 8.23772 3.77144 7.9719 3.55932 7.85173M2.45027 9.73406L2.66197 9.3605L2.71879 9.39399L2.71897 9.39368M2.45027 9.73406C2.23814 9.61385 2.16558 9.34829 2.28801 9.14017M2.45027 9.73406L2.66168 9.36033L2.28801 9.14017M2.71897 9.39368L2.72657 9.38078L2.72661 9.38073L3.38403 8.26495M2.71897 9.39368C2.72162 9.38919 2.72368 9.3846 2.72522 9.37998C2.72523 9.37996 2.72523 9.37994 2.72524 9.37992C2.73621 9.34689 2.72024 9.31235 2.69679 9.29906L2.66955 9.34712L2.66952 9.34718L2.66212 9.36024L2.71897 9.39368ZM3.38403 8.26495L3.38417 8.26472L3.34031 8.23888L3.34798 8.22532L3.34824 8.22486L3.55932 7.85173M3.38403 8.26495L3.34019 8.23909L3.31313 8.28692C3.32542 8.29387 3.33917 8.29474 3.34984 8.29194C3.36059 8.28912 3.37472 8.28073 3.38403 8.26495ZM3.55932 7.85173L3.34801 8.22472L3.34775 8.22519L3.34007 8.23874L3.28436 8.20591C3.28592 8.20112 3.28803 8.19634 3.29077 8.19162L3.28287 8.20503L2.95338 8.0109M3.55932 7.85173C3.3472 7.73173 3.07603 7.80299 2.95338 8.0109M2.95338 8.0109L2.28801 9.14017M2.95338 8.0109L3.28277 8.20521L2.6254 9.32111C2.63489 9.30504 2.64919 9.29664 2.65985 9.29384C2.67044 9.29106 2.68413 9.2919 2.69645 9.29887L2.66925 9.34694L2.66922 9.34701L2.66183 9.36007L2.28801 9.14017M3.28429 8.20611L3.33996 8.23895L3.31286 8.28677C3.29009 8.27387 3.27342 8.23983 3.28429 8.20611Z" fill="#FF9F0D" stroke="#FF9F0D"/>
<path d="M7.25277 9.91829C7.60968 8.10252 9.21007 6.73291 11.1305 6.73291C13.0509 6.73291 14.6513 8.10251 15.0082 9.91829C14.4927 8.26709 12.9515 7.06852 11.1305 7.06852C9.30954 7.06852 7.76832 8.26709 7.25277 9.91829Z" fill="#FF9F0D" stroke="#FF9F0D"/>
<path d="M5.18816 19.9456C6.92706 20.9812 8.95904 21.576 11.1301 21.576C13.3009 21.576 15.3328 20.9813 17.0716 19.9458C15.3754 21.0913 13.3308 21.76 11.1301 21.76C8.92916 21.76 6.88445 21.0912 5.18816 19.9456Z" fill="#FF9F0D" stroke="#FF9F0D"/>
<mask id="path-12-inside-3_2_632" fill="white">
<path d="M13.5837 4.62319L12.4546 5.2823C12.2467 5.4036 11.9789 5.32816 11.8562 5.11335C11.8342 5.07504 11.8206 5.03457 11.8109 4.99383C11.7817 5.10469 11.7944 5.22756 11.8562 5.33595C11.9789 5.55055 12.2467 5.6262 12.4546 5.5049L13.5837 4.84579C13.7546 4.74605 13.8294 4.54462 13.7838 4.35693C13.7555 4.4658 13.6867 4.56288 13.5837 4.62319ZM2.74695 4.54528L2.08028 5.73976C1.95763 5.95945 1.67403 6.02801 1.44673 5.89267C1.32608 5.82076 1.24704 5.70524 1.21657 5.58016C1.1667 5.77893 1.2553 6.0011 1.44673 6.11527C1.67403 6.25061 1.95759 6.18205 2.08028 5.96236L2.74695 4.76788C2.80439 4.66505 2.81486 4.54728 2.78791 4.43711C2.77856 4.47428 2.76634 4.5108 2.74695 4.54528ZM20.7891 10.001C20.5327 10.0658 20.2691 9.92224 20.2003 9.68003L19.8273 8.36403L19.8268 8.36138C19.8081 8.43329 19.8054 8.50985 19.8273 8.58663L20.2003 9.90263C20.2691 10.1448 20.5324 10.2884 20.7891 10.2236C21.0447 10.1588 21.1965 9.91155 21.1294 9.67003C21.0889 9.82542 20.9647 9.9565 20.7891 10.001Z"/>
</mask>
<path d="M13.5837 4.62319L12.4546 5.2823C12.2467 5.4036 11.9789 5.32816 11.8562 5.11335C11.8342 5.07504 11.8206 5.03457 11.8109 4.99383C11.7817 5.10469 11.7944 5.22756 11.8562 5.33595C11.9789 5.55055 12.2467 5.6262 12.4546 5.5049L13.5837 4.84579C13.7546 4.74605 13.8294 4.54462 13.7838 4.35693C13.7555 4.4658 13.6867 4.56288 13.5837 4.62319ZM2.74695 4.54528L2.08028 5.73976C1.95763 5.95945 1.67403 6.02801 1.44673 5.89267C1.32608 5.82076 1.24704 5.70524 1.21657 5.58016C1.1667 5.77893 1.2553 6.0011 1.44673 6.11527C1.67403 6.25061 1.95759 6.18205 2.08028 5.96236L2.74695 4.76788C2.80439 4.66505 2.81486 4.54728 2.78791 4.43711C2.77856 4.47428 2.76634 4.5108 2.74695 4.54528ZM20.7891 10.001C20.5327 10.0658 20.2691 9.92224 20.2003 9.68003L19.8273 8.36403L19.8268 8.36138C19.8081 8.43329 19.8054 8.50985 19.8273 8.58663L20.2003 9.90263C20.2691 10.1448 20.5324 10.2884 20.7891 10.2236C21.0447 10.1588 21.1965 9.91155 21.1294 9.67003C21.0889 9.82542 20.9647 9.9565 20.7891 10.001Z" fill="#FF9F0D"/>
<path d="M13.5837 4.62319L14.0878 5.4868L14.0886 5.48634L13.5837 4.62319ZM12.4546 5.2823L12.9586 6.14604L12.9588 6.14591L12.4546 5.2823ZM11.8562 5.11335L12.7246 4.61739L12.723 4.61456L11.8562 5.11335ZM11.8109 4.99383L12.7832 4.76034L10.8438 4.73935L11.8109 4.99383ZM11.8562 5.33595L10.9878 5.83167L10.988 5.83214L11.8562 5.33595ZM12.4546 5.5049L12.9585 6.36868L12.9588 6.36851L12.4546 5.5049ZM13.5837 4.84579L13.0797 3.98204L13.0795 3.98217L13.5837 4.84579ZM13.7838 4.35693L14.7555 4.12081L12.8159 4.10568L13.7838 4.35693ZM2.74695 4.54528L1.87534 4.05506L1.87375 4.05792L2.74695 4.54528ZM2.08028 5.73976L2.95342 6.22722L2.95348 6.22712L2.08028 5.73976ZM1.44673 5.89267L0.934743 6.75166L0.935116 6.75188L1.44673 5.89267ZM1.21657 5.58016L2.18814 5.34343L0.246623 5.33682L1.21657 5.58016ZM1.44673 6.11527L0.934504 6.97412L0.935116 6.97448L1.44673 6.11527ZM2.08028 5.96236L2.95335 6.44996L2.95348 6.44972L2.08028 5.96236ZM2.74695 4.76788L1.87391 4.28023L1.87375 4.28052L2.74695 4.76788ZM2.78791 4.43711L3.75926 4.19944L1.8181 4.19324L2.78791 4.43711ZM20.7891 10.001L21.034 10.9706L21.0348 10.9704L20.7891 10.001ZM20.2003 9.68003L19.2382 9.95278L19.2384 9.9532L20.2003 9.68003ZM19.8273 8.36403L18.8405 8.52598L18.8497 8.58208L18.8652 8.63677L19.8273 8.36403ZM19.8268 8.36138L20.8136 8.19942L18.859 8.10976L19.8268 8.36138ZM19.8273 8.58663L20.7893 8.31389L20.7891 8.3132L19.8273 8.58663ZM20.2003 9.90263L19.2382 10.1754L19.2384 10.1758L20.2003 9.90263ZM20.7891 10.2236L21.0338 11.1932L21.0348 11.193L20.7891 10.2236ZM21.1294 9.67003L22.093 9.40256L21.0993 5.82269L20.1618 9.4177L21.1294 9.67003ZM13.0795 3.75957L11.9505 4.41868L12.9588 6.14591L14.0878 5.4868L13.0795 3.75957ZM11.9507 4.41856C12.2443 4.24726 12.584 4.37127 12.7246 4.6174L10.9879 5.6093C11.3738 6.28506 12.2491 6.55994 12.9586 6.14604L11.9507 4.41856ZM12.723 4.61456C12.7645 4.68669 12.7795 4.74499 12.7832 4.76034L10.8385 5.22732C10.8617 5.32414 10.9039 5.46339 10.9895 5.61213L12.723 4.61456ZM10.8438 4.73935C10.7503 5.09455 10.7915 5.48783 10.9878 5.83167L12.7247 4.84022C12.7972 4.96729 12.813 5.11483 12.7779 5.2483L10.8438 4.73935ZM10.988 5.83214C11.3737 6.50695 12.2486 6.78277 12.9585 6.36868L11.9508 4.64111C12.2447 4.46963 12.5841 4.59415 12.7245 4.83975L10.988 5.83214ZM12.9588 6.36851L14.0878 5.7094L13.0795 3.98217L11.9505 4.64128L12.9588 6.36851ZM14.0876 5.70954C14.6732 5.36785 14.8963 4.70025 14.7555 4.12081L12.8121 4.59306C12.7625 4.389 12.836 4.12425 13.0797 3.98204L14.0876 5.70954ZM12.8159 4.10568C12.8505 3.97213 12.9392 3.84164 13.0787 3.76003L14.0886 5.48634C14.4343 5.28412 14.6605 4.95947 14.7517 4.60819L12.8159 4.10568ZM1.87375 4.05792L1.20708 5.2524L2.95348 6.22712L3.62016 5.03263L1.87375 4.05792ZM1.20713 5.2523C1.38235 4.93845 1.74387 4.90574 1.95835 5.03346L0.935116 6.75188C1.60419 7.15028 2.53291 6.98045 2.95342 6.22722L1.20713 5.2523ZM1.95872 5.03368C2.08148 5.10685 2.15876 5.22284 2.18814 5.34343L0.24499 5.81689C0.335327 6.18764 0.570689 6.53467 0.934743 6.75166L1.95872 5.03368ZM0.246623 5.33682C0.0874004 5.97149 0.370868 6.63796 0.934505 6.97412L1.95896 5.25642C2.13974 5.36424 2.24599 5.58637 2.18651 5.82349L0.246623 5.33682ZM0.935116 6.97448C1.60429 7.37294 2.53282 7.20294 2.95335 6.44996L1.20721 5.47477C1.38235 5.16116 1.74377 5.12829 1.95835 5.25606L0.935116 6.97448ZM2.95348 6.44972L3.62016 5.25524L1.87375 4.28052L1.20708 5.475L2.95348 6.44972ZM3.61999 5.25553C3.81466 4.90701 3.8391 4.52577 3.75926 4.19944L1.81656 4.67477C1.79063 4.56878 1.79411 4.4231 1.87391 4.28023L3.61999 5.25553ZM1.8181 4.19324C1.82059 4.18334 1.83512 4.1266 1.87535 4.05507L3.61856 5.03548C3.69757 4.895 3.73653 4.76521 3.75772 4.68097L1.8181 4.19324ZM20.5442 9.03148C20.7678 8.97498 21.0711 9.08584 21.1623 9.40686L19.2384 9.9532C19.4671 10.7586 20.2975 11.1566 21.034 10.9706L20.5442 9.03148ZM21.1624 9.40729L20.7893 8.09129L18.8652 8.63677L19.2382 9.95278L21.1624 9.40729ZM20.8141 8.20207L20.8136 8.19942L18.84 8.52333L18.8405 8.52598L20.8141 8.20207ZM18.859 8.10976C18.8022 8.3281 18.788 8.5878 18.8654 8.86006L20.7891 8.3132C20.8229 8.4319 20.814 8.53848 20.7946 8.61299L18.859 8.10976ZM18.8652 8.85937L19.2382 10.1754L21.1624 9.62989L20.7893 8.31389L18.8652 8.85937ZM19.2384 10.1758C19.4671 10.9812 20.2971 11.3792 21.0338 11.1932L20.5444 9.25403C20.7678 9.19764 21.0712 9.30853 21.1623 9.62946L19.2384 10.1758ZM21.0348 11.193C21.7872 11.0022 22.3228 10.2304 22.093 9.40256L20.1659 9.93751C20.0702 9.59274 20.3021 9.31545 20.5434 9.25428L21.0348 11.193ZM20.1618 9.4177C20.213 9.22147 20.3645 9.07702 20.5433 9.03169L21.0348 10.9704C21.5649 10.836 21.9649 10.4294 22.0971 9.92237L20.1618 9.4177Z" fill="#FF9F0D" mask="url(#path-12-inside-3_2_632)"/>
<mask id="path-14-inside-4_2_632" fill="white">
<path d="M7.68537 5.20359L6.37559 5.55284C6.13451 5.61718 5.88117 5.45401 5.81017 5.18846L5.80526 5.15998C5.78791 5.23945 5.787 5.32493 5.81017 5.41106C5.88117 5.67661 6.13451 5.83978 6.37559 5.77544L7.68537 5.42619C7.91797 5.36432 8.05245 5.1132 7.99815 4.85742C7.96206 5.02329 7.84828 5.16041 7.68537 5.20359ZM16.6972 7.79377C16.4525 7.79377 16.2544 7.59408 16.2542 7.34769L16.2529 6.2289L16.2526 6.23134L16.2542 7.5703C16.2544 7.81672 16.4528 8.01663 16.6972 8.01637C16.9416 8.01637 17.1395 7.81646 17.139 7.57003L17.1388 7.34965C17.1381 7.59521 16.9409 7.79377 16.6972 7.79377Z"/>
</mask>
<path d="M7.68537 5.20359L6.37559 5.55284C6.13451 5.61718 5.88117 5.45401 5.81017 5.18846L5.80526 5.15998C5.78791 5.23945 5.787 5.32493 5.81017 5.41106C5.88117 5.67661 6.13451 5.83978 6.37559 5.77544L7.68537 5.42619C7.91797 5.36432 8.05245 5.1132 7.99815 4.85742C7.96206 5.02329 7.84828 5.16041 7.68537 5.20359ZM16.6972 7.79377C16.4525 7.79377 16.2544 7.59408 16.2542 7.34769L16.2529 6.2289L16.2526 6.23134L16.2542 7.5703C16.2544 7.81672 16.4528 8.01663 16.6972 8.01637C16.9416 8.01637 17.1395 7.81646 17.139 7.57003L17.1388 7.34965C17.1381 7.59521 16.9409 7.79377 16.6972 7.79377Z" fill="#FF9F0D"/>
<path d="M7.68537 5.20359L7.4292 4.23695L7.42773 4.23735L7.68537 5.20359ZM6.37559 5.55284L6.11794 4.5866L6.11771 4.58666L6.37559 5.55284ZM5.81017 5.18846L4.82473 5.35847L4.83242 5.40304L4.8441 5.44674L5.81017 5.18846ZM5.80526 5.15998L6.7907 4.98996L4.82826 4.94673L5.80526 5.15998ZM5.81017 5.41106L6.77624 5.15277L6.77583 5.15124L5.81017 5.41106ZM6.37559 5.77544L6.11794 4.8092L6.11771 4.80926L6.37559 5.77544ZM7.68537 5.42619L7.42833 4.45979L7.42773 4.45995L7.68537 5.42619ZM7.99815 4.85742L8.97634 4.64974L7.021 4.64483L7.99815 4.85742ZM16.2542 7.34769L17.2542 7.34681L17.2542 7.34649L16.2542 7.34769ZM16.2529 6.2289L17.2528 6.2277L15.2568 6.13988L16.2529 6.2289ZM16.2526 6.23134L15.2566 6.14232L15.2526 6.18732L15.2526 6.23251L16.2526 6.23134ZM16.2542 7.5703L17.2542 7.56941L17.2542 7.56913L16.2542 7.5703ZM16.6972 8.01637V7.01637L16.6961 7.01637L16.6972 8.01637ZM17.139 7.57003L16.139 7.57102L16.139 7.5718L17.139 7.57003ZM17.1388 7.34965L18.1388 7.34866L16.1388 7.34682L17.1388 7.34965ZM7.42773 4.23735L6.11794 4.5866L6.63323 6.51908L7.94302 6.16982L7.42773 4.23735ZM6.11771 4.58666C6.4954 4.48585 6.72857 4.75186 6.77624 4.93017L4.8441 5.44674C5.03377 6.15617 5.77361 6.74851 6.63347 6.51901L6.11771 4.58666ZM6.79561 5.01844L6.7907 4.98996L4.81982 5.33L4.82473 5.35847L6.79561 5.01844ZM4.82826 4.94673C4.78041 5.16593 4.77557 5.41462 4.84451 5.67087L6.77583 5.15124C6.79843 5.23523 6.79541 5.31298 6.78225 5.37323L4.82826 4.94673ZM4.8441 5.66934C5.03377 6.37877 5.77361 6.97111 6.63347 6.74161L6.11771 4.80926C6.4954 4.70845 6.72857 4.97446 6.77624 5.15277L4.8441 5.66934ZM6.63323 6.74168L7.94302 6.39243L7.42773 4.45995L6.11794 4.8092L6.63323 6.74168ZM7.94242 6.39259C8.77861 6.17017 9.12107 5.33145 8.97634 4.64974L7.01995 5.0651C6.98382 4.89494 7.05734 4.55846 7.42833 4.45979L7.94242 6.39259ZM7.021 4.64483C7.05103 4.50681 7.17109 4.30536 7.4292 4.23695L7.94154 6.17022C8.52547 6.01547 8.87309 5.53976 8.97529 5.07001L7.021 4.64483ZM16.6972 6.79377C17.0121 6.79377 17.2539 7.04892 17.2542 7.34681L15.2542 7.34858C15.2549 8.13924 15.893 8.79377 16.6972 8.79377V6.79377ZM17.2542 7.34649L17.2528 6.2277L15.2529 6.23011L15.2542 7.3489L17.2542 7.34649ZM15.2568 6.13988L15.2566 6.14232L17.2487 6.32036L17.2489 6.31792L15.2568 6.13988ZM15.2526 6.23251L15.2542 7.57146L17.2542 7.56913L17.2526 6.23017L15.2526 6.23251ZM15.2542 7.57118C15.2549 8.36129 15.8928 9.01723 16.6983 9.01637L16.6961 7.01637C17.0127 7.01603 17.2539 7.27216 17.2542 7.56941L15.2542 7.57118ZM16.6972 9.01637C17.5025 9.01637 18.1404 8.35975 18.139 7.56827L16.139 7.5718C16.1385 7.27318 16.3807 7.01637 16.6972 7.01637V9.01637ZM18.139 7.56905L18.1388 7.34866L16.1388 7.35064L16.139 7.57102L18.139 7.56905ZM16.1388 7.34682C16.1397 7.04951 16.3815 6.79377 16.6972 6.79377V8.79377C17.5004 8.79377 18.1366 8.14091 18.1388 7.35248L16.1388 7.34682Z" fill="#FF9F0D" mask="url(#path-14-inside-4_2_632)"/>
<mask id="path-16-inside-5_2_632" fill="white">
<path d="M16.8621 3.11761C16.7417 3.33065 16.475 3.40343 16.2665 3.28056L15.1334 2.61276C15.029 2.55132 14.9591 2.4525 14.9302 2.34229C14.8841 2.53015 14.9609 2.73384 15.1334 2.83536L16.2665 3.50316C16.475 3.62603 16.7417 3.55325 16.8621 3.34021C16.9225 3.23361 16.9345 3.11248 16.9058 3.00231C16.896 3.0417 16.8831 3.08065 16.8621 3.11761ZM3.72307 8.22319L3.0577 9.35268C2.93527 9.56059 2.66393 9.6318 2.45176 9.51185C2.34625 9.4522 2.27547 9.35646 2.24586 9.24986C2.19734 9.43415 2.27525 9.6345 2.45176 9.73445C2.66389 9.85445 2.93527 9.78319 3.0577 9.57528L3.72307 8.44579C3.78472 8.34119 3.79677 8.22206 3.76672 8.11389C3.75668 8.15128 3.74355 8.18824 3.72307 8.22319Z"/>
</mask>
<path d="M16.8621 3.11761C16.7417 3.33065 16.475 3.40343 16.2665 3.28056L15.1334 2.61276C15.029 2.55132 14.9591 2.4525 14.9302 2.34229C14.8841 2.53015 14.9609 2.73384 15.1334 2.83536L16.2665 3.50316C16.475 3.62603 16.7417 3.55325 16.8621 3.34021C16.9225 3.23361 16.9345 3.11248 16.9058 3.00231C16.896 3.0417 16.8831 3.08065 16.8621 3.11761ZM3.72307 8.22319L3.0577 9.35268C2.93527 9.56059 2.66393 9.6318 2.45176 9.51185C2.34625 9.4522 2.27547 9.35646 2.24586 9.24986C2.19734 9.43415 2.27525 9.6345 2.45176 9.73445C2.66389 9.85445 2.93527 9.78319 3.0577 9.57528L3.72307 8.44579C3.78472 8.34119 3.79677 8.22206 3.76672 8.11389C3.75668 8.15128 3.74355 8.18824 3.72307 8.22319Z" fill="#FF9F0D"/>
<path d="M16.8621 3.11761L15.9918 2.62511L15.9916 2.62549L16.8621 3.11761ZM16.2665 3.28056L15.7587 4.14206L15.7589 4.14216L16.2665 3.28056ZM15.1334 2.61276L15.6412 1.75125L15.6406 1.75092L15.1334 2.61276ZM14.9302 2.34229L15.8973 2.08819L13.959 2.10404L14.9302 2.34229ZM15.1334 2.83536L15.6412 1.97386L15.6406 1.97351L15.1334 2.83536ZM16.2665 3.50316L15.7587 4.36466L15.7589 4.36476L16.2665 3.50316ZM16.8621 3.34021L15.9919 2.84759L15.9916 2.8481L16.8621 3.34021ZM16.9058 3.00231L17.8735 2.75026L15.9355 2.76028L16.9058 3.00231ZM3.72307 8.22319L4.58469 8.73076L4.58592 8.72866L3.72307 8.22319ZM3.0577 9.35268L2.19609 8.84511L2.19601 8.84525L3.0577 9.35268ZM2.45176 9.51185L2.94392 8.64134L2.94388 8.64132L2.45176 9.51185ZM2.24586 9.24986L3.20939 8.98225L2.22005 5.42006L1.27881 8.99526L2.24586 9.24986ZM2.45176 9.73445L1.95902 10.6046L1.9594 10.6048L2.45176 9.73445ZM3.0577 9.57528L2.19609 9.06771L2.19601 9.06785L3.0577 9.57528ZM3.72307 8.44579L2.86156 7.93806L2.86146 7.93823L3.72307 8.44579ZM3.76672 8.11389L4.73025 7.84629L3.75061 4.31899L2.80096 7.85448L3.76672 8.11389ZM15.9916 2.62549C16.1418 2.35978 16.4928 2.25324 16.7741 2.41896L15.7589 4.14216C16.4573 4.55362 17.3416 4.30151 17.7327 3.60972L15.9916 2.62549ZM16.7742 2.41906L15.6412 1.75125L14.6257 3.47426L15.7587 4.14206L16.7742 2.41906ZM15.6406 1.75092C15.7773 1.83135 15.8633 1.95861 15.8973 2.08819L13.963 2.59638C14.0549 2.94639 14.2808 3.27129 14.6262 3.47459L15.6406 1.75092ZM13.959 2.10404C13.8144 2.69314 14.0491 3.35756 14.6263 3.69721L15.6406 1.97351C15.8727 2.11012 15.9537 2.36715 15.9014 2.58053L13.959 2.10404ZM14.6257 3.69686L15.7587 4.36466L16.7742 2.64166L15.6412 1.97386L14.6257 3.69686ZM15.7589 4.36476C16.4573 4.77622 17.3416 4.52411 17.7327 3.83233L15.9916 2.8481C16.1418 2.58238 16.4928 2.47584 16.7741 2.64156L15.7589 4.36476ZM17.7324 3.83283C17.9274 3.48833 17.9642 3.0985 17.8735 2.75026L15.9381 3.25436C15.9048 3.12646 15.9176 2.97888 15.9919 2.84759L17.7324 3.83283ZM15.9355 2.76028C15.9374 2.75275 15.9515 2.69639 15.9918 2.62511L17.7325 3.6101C17.8146 3.46492 17.8545 3.33065 17.8761 3.24434L15.9355 2.76028ZM2.86146 7.71562L2.19609 8.84511L3.91931 9.86025L4.58469 8.73076L2.86146 7.71562ZM2.19601 8.84525C2.35526 8.57482 2.68979 8.49767 2.94392 8.64134L1.95961 10.3824C2.63807 10.7659 3.51529 10.5463 3.9194 9.86011L2.19601 8.84525ZM2.94388 8.64132C3.07578 8.71588 3.17006 8.84066 3.20939 8.98225L1.28233 9.51746C1.38087 9.87226 1.61671 10.1885 1.95965 10.3824L2.94388 8.64132ZM1.27881 8.99526C1.11736 9.6085 1.37828 10.2758 1.95902 10.6046L2.94451 8.86428C3.17222 8.99322 3.27731 9.25981 3.21291 9.50445L1.27881 8.99526ZM1.9594 10.6048C2.63809 10.9888 3.51539 10.7688 3.9194 10.0827L2.19601 9.06785C2.35516 8.79759 2.68969 8.72013 2.94413 8.86406L1.9594 10.6048ZM3.91931 10.0828L4.58469 8.95336L2.86146 7.93823L2.19609 9.06771L3.91931 10.0828ZM4.58458 8.95353C4.78988 8.60519 4.82983 8.20481 4.73025 7.84629L2.8032 8.3815C2.76371 8.23931 2.77957 8.07719 2.86156 7.93806L4.58458 8.95353ZM2.80096 7.85448C2.80419 7.84244 2.81968 7.78695 2.86023 7.71772L4.58592 8.72866C4.66743 8.58953 4.70917 8.46013 4.73249 8.3733L2.80096 7.85448Z" fill="#FF9F0D" mask="url(#path-16-inside-5_2_632)"/>
<mask id="path-18-inside-6_2_632" fill="white">
<path d="M4.4506 13.7408C4.23848 13.8608 3.96731 13.7895 3.84466 13.5816L3.17929 12.4524C3.1586 12.4174 3.14547 12.3805 3.13564 12.3433C3.1056 12.4512 3.1176 12.5706 3.17929 12.675L3.84466 13.8042C3.96709 14.0121 4.23843 14.0834 4.4506 13.9634C4.62712 13.8637 4.70524 13.6631 4.65651 13.4788C4.6269 13.5852 4.55612 13.6812 4.4506 13.7408ZM9.10989 1.17871C9.07159 1.30962 8.96785 1.41866 8.82408 1.45653L7.63894 1.76817C7.4239 1.82469 7.20352 1.70139 7.14143 1.49283C7.12161 1.56048 7.1183 1.63396 7.13808 1.70696C7.19665 1.92108 7.42077 2.04821 7.63894 1.99077L8.82408 1.67913C9.04224 1.6217 9.17176 1.40153 9.11324 1.18719C9.1132 1.18719 9.10989 1.17871 9.10989 1.17871Z"/>
</mask>
<path d="M4.4506 13.7408C4.23848 13.8608 3.96731 13.7895 3.84466 13.5816L3.17929 12.4524C3.1586 12.4174 3.14547 12.3805 3.13564 12.3433C3.1056 12.4512 3.1176 12.5706 3.17929 12.675L3.84466 13.8042C3.96709 14.0121 4.23843 14.0834 4.4506 13.9634C4.62712 13.8637 4.70524 13.6631 4.65651 13.4788C4.6269 13.5852 4.55612 13.6812 4.4506 13.7408ZM9.10989 1.17871C9.07159 1.30962 8.96785 1.41866 8.82408 1.45653L7.63894 1.76817C7.4239 1.82469 7.20352 1.70139 7.14143 1.49283C7.12161 1.56048 7.1183 1.63396 7.13808 1.70696C7.19665 1.92108 7.42077 2.04821 7.63894 1.99077L8.82408 1.67913C9.04224 1.6217 9.17176 1.40153 9.11324 1.18719C9.1132 1.18719 9.10989 1.17871 9.10989 1.17871Z" fill="#FF9F0D"/>
<path d="M4.4506 13.7408L3.95848 12.8703L3.95823 12.8704L4.4506 13.7408ZM3.84466 13.5816L2.98309 14.0893L2.98336 14.0897L3.84466 13.5816ZM3.17929 12.4524L4.04086 11.9447L4.03979 11.9429L3.17929 12.4524ZM3.13564 12.3433L4.10244 12.0877L3.16048 8.52413L2.17225 12.0752L3.13564 12.3433ZM3.17929 12.675L4.04086 12.1673L4.04018 12.1662L3.17929 12.675ZM3.84466 13.8042L4.70636 13.2968L4.70623 13.2966L3.84466 13.8042ZM4.4506 13.9634L3.95867 13.0928L3.95844 13.0929L4.4506 13.9634ZM4.65651 13.4788L5.62327 13.2232L4.68094 9.65977L3.69309 13.2108L4.65651 13.4788ZM9.10989 1.17871L10.0416 0.815526L8.97492 -1.92098L8.15013 0.897891L9.10989 1.17871ZM8.82408 1.45653L9.07839 2.42365L9.07877 2.42355L8.82408 1.45653ZM7.63894 1.76817L7.89314 2.73532L7.89325 2.73529L7.63894 1.76817ZM7.14143 1.49283L8.09987 1.20752L7.13392 -2.03733L6.18179 1.2116L7.14143 1.49283ZM7.13808 1.70696L6.17289 1.96852L6.17351 1.97077L7.13808 1.70696ZM7.63894 1.99077L7.38462 1.02365L7.38436 1.02372L7.63894 1.99077ZM8.82408 1.67913L9.07839 2.64625L9.07865 2.64618L8.82408 1.67913ZM9.11324 1.18719L10.0779 0.923807L9.87682 0.187189H9.11324V1.18719ZM3.95823 12.8704C4.21315 12.7262 4.54724 12.8045 4.70596 13.0735L2.98336 14.0897C3.38738 14.7746 4.2638 14.9954 4.94297 14.6112L3.95823 12.8704ZM4.70623 13.074L4.04086 11.9447L2.31772 12.96L2.98309 14.0893L4.70623 13.074ZM4.03979 11.9429C4.08203 12.0143 4.09834 12.0722 4.10244 12.0877L2.16885 12.5988C2.19259 12.6887 2.23516 12.8206 2.31879 12.9618L4.03979 11.9429ZM2.17225 12.0752C2.07256 12.4334 2.11213 12.8347 2.3184 13.1838L4.04018 12.1662C4.12306 12.3064 4.13864 12.4691 4.09903 12.6114L2.17225 12.0752ZM2.31772 13.1826L2.98309 14.3119L4.70623 13.2966L4.04086 12.1673L2.31772 13.1826ZM2.98297 14.3117C3.38708 14.9979 4.26429 15.2175 4.94276 14.8339L3.95844 13.0929C4.21258 12.9492 4.54711 13.0264 4.70636 13.2968L2.98297 14.3117ZM4.94253 14.834C5.5238 14.5056 5.78571 13.8374 5.62327 13.2232L3.68974 13.7345C3.62478 13.4888 3.73043 13.2217 3.95867 13.0928L4.94253 14.834ZM3.69309 13.2108C3.73231 13.0698 3.82616 12.9451 3.95848 12.8703L4.94272 14.6113C5.28608 14.4172 5.52149 14.1006 5.61992 13.7468L3.69309 13.2108ZM8.15013 0.897891C8.20592 0.707233 8.35928 0.544843 8.56938 0.489507L9.07877 2.42355C9.57643 2.29248 9.93726 1.91201 10.0697 1.45953L8.15013 0.897891ZM8.56976 0.489407L7.38462 0.801049L7.89325 2.73529L9.07839 2.42365L8.56976 0.489407ZM7.38473 0.801021C7.6821 0.722861 8.00515 0.889361 8.09987 1.20752L6.183 1.77814C6.40188 2.51342 7.1657 2.92652 7.89314 2.73532L7.38473 0.801021ZM6.18179 1.2116C6.11525 1.43866 6.10031 1.70068 6.1729 1.96852L8.10327 1.44539C8.13629 1.56724 8.12796 1.6823 8.10107 1.77406L6.18179 1.2116ZM6.17351 1.97077C6.3805 2.72759 7.15858 3.1513 7.89352 2.95782L7.38436 1.02372C7.68296 0.945114 8.01279 1.11457 8.10266 1.44314L6.17351 1.97077ZM7.89325 2.95789L9.07839 2.64625L8.56976 0.712008L7.38462 1.02365L7.89325 2.95789ZM9.07865 2.64618C9.81949 2.45116 10.2869 1.68908 10.0779 0.923807L8.14855 1.45057C8.05665 1.11398 8.26499 0.792239 8.5695 0.712078L9.07865 2.64618ZM9.11324 0.187189C9.27292 0.200019 9.52667 0.276652 9.62025 0.325247C9.6786 0.362342 9.77039 0.433429 9.80509 0.465144C9.87016 0.527498 9.91176 0.584683 9.92653 0.605326C9.96087 0.653335 9.98315 0.693825 9.98896 0.704363C10.005 0.733547 10.0161 0.757212 10.0185 0.762331C10.026 0.778251 10.0314 0.790932 10.0324 0.793414C10.036 0.801652 10.0386 0.808128 10.0391 0.809256C10.0407 0.813256 10.0419 0.816261 10.042 0.816482C10.0425 0.817824 10.0428 0.818445 10.0425 0.817694C10.0423 0.81726 10.0421 0.816697 10.0419 0.81616C10.0418 0.815914 10.0417 0.815716 10.0416 0.815595C10.0416 0.815535 10.0416 0.815497 10.0416 0.815483C10.0416 0.815477 10.0416 0.815477 10.0416 0.815484C10.0416 0.815487 10.0416 0.815493 10.0416 0.8155C10.0416 0.815503 10.0416 0.815507 10.0416 0.815512C10.0416 0.815514 10.0416 0.815516 10.0416 0.815519C10.0416 0.81552 10.0416 0.815522 10.0416 0.815523C10.0416 0.815524 10.0416 0.815526 9.10989 1.17871C8.17818 1.5419 8.17818 1.5419 8.17818 1.5419C8.17818 1.5419 8.17818 1.5419 8.17818 1.5419C8.17818 1.54191 8.17818 1.54191 8.17818 1.54191C8.17818 1.54192 8.17819 1.54193 8.17819 1.54193C8.1782 1.54195 8.1782 1.54197 8.17821 1.54199C8.17823 1.54203 8.17824 1.54207 8.17827 1.54213C8.17831 1.54224 8.17837 1.54238 8.17843 1.54256C8.17857 1.5429 8.17875 1.54336 8.17896 1.54391C8.17937 1.54496 8.17998 1.54652 8.18064 1.54821C8.18118 1.54957 8.18226 1.55232 8.18342 1.55525C8.18383 1.55626 8.18528 1.55993 8.1871 1.56439C8.18766 1.56575 8.19037 1.57241 8.19395 1.58077C8.19504 1.58332 8.20047 1.59605 8.20796 1.612C8.21037 1.61713 8.22142 1.64081 8.23752 1.67C8.24333 1.68054 8.2656 1.72104 8.29995 1.76905C8.31472 1.78969 8.35632 1.84688 8.42139 1.90923C8.45609 1.94095 8.54788 2.01204 8.60623 2.04913C8.69981 2.09773 8.95357 2.17436 9.11324 2.18719V0.187189Z" fill="#FF9F0D" mask="url(#path-18-inside-6_2_632)"/>
<mask id="path-20-inside-7_2_632" fill="white">
<path d="M22.2449 10.5388C22.2264 10.8923 22.1903 11.2411 22.1395 11.5852C22.1805 11.4904 22.2192 11.3976 22.256 11.3083L22.2607 11.1302C22.2607 10.9321 22.2551 10.7353 22.2449 10.5399V10.5388ZM0.0483564 12.1435L0.0539214 12.2167C0.0888769 12.572 0.140527 12.9221 0.207525 13.267L0.558341 13.4239C0.257393 12.5081 0.0690514 11.5416 0.0165313 10.5381C0.00605333 10.7343 0.000488281 10.9315 0.000488281 11.1302C0.000488281 11.3152 0.00540117 11.4991 0.0142705 11.6821C0.0223137 11.8368 0.0343133 11.9904 0.0483564 12.1435Z"/>
</mask>
<path d="M22.2449 10.5388C22.2264 10.8923 22.1903 11.2411 22.1395 11.5852C22.1805 11.4904 22.2192 11.3976 22.256 11.3083L22.2607 11.1302C22.2607 10.9321 22.2551 10.7353 22.2449 10.5399V10.5388ZM0.0483564 12.1435L0.0539214 12.2167C0.0888769 12.572 0.140527 12.9221 0.207525 13.267L0.558341 13.4239C0.257393 12.5081 0.0690514 11.5416 0.0165313 10.5381C0.00605333 10.7343 0.000488281 10.9315 0.000488281 11.1302C0.000488281 11.3152 0.00540117 11.4991 0.0142705 11.6821C0.0223137 11.8368 0.0343133 11.9904 0.0483564 12.1435Z" fill="#FF9F0D"/>
<path d="M22.2449 10.5388H23.2449L21.2462 10.4866L22.2449 10.5388ZM22.1395 11.5852L21.1503 11.4392L23.0576 11.9817L22.1395 11.5852ZM22.256 11.3083L23.1807 11.6889L23.2508 11.5187L23.2556 11.3347L22.256 11.3083ZM22.2607 11.1302L23.2603 11.1566L23.2607 11.1434V11.1302H22.2607ZM22.2449 10.5399H21.2449V10.5661L21.2462 10.5923L22.2449 10.5399ZM0.0483564 12.1435L1.04548 12.0677L1.04489 12.06L1.04418 12.0522L0.0483564 12.1435ZM0.0539214 12.2167L-0.943202 12.2925L-0.942361 12.3036L-0.941274 12.3146L0.0539214 12.2167ZM0.207525 13.267L-0.774116 13.4577L-0.675036 13.9676L-0.200859 14.1798L0.207525 13.267ZM0.558341 13.4239L0.149956 14.3367L2.21444 15.2604L1.50836 13.1117L0.558341 13.4239ZM0.0165313 10.5381L1.01516 10.4858L-0.982045 10.4847L0.0165313 10.5381ZM0.0142705 11.6821L-0.984563 11.7305L-0.984381 11.734L0.0142705 11.6821ZM21.2462 10.4866C21.2295 10.8066 21.1968 11.1241 21.1503 11.4392L23.1288 11.7312C23.1839 11.3581 23.2233 10.978 23.2435 10.591L21.2462 10.4866ZM23.0576 11.9817C23.1016 11.8797 23.1427 11.7812 23.1807 11.6889L21.3312 10.9277C21.2957 11.014 21.2594 11.1011 21.2215 11.1887L23.0576 11.9817ZM23.2556 11.3347L23.2603 11.1566L21.261 11.1039L21.2563 11.282L23.2556 11.3347ZM23.2607 11.1302C23.2607 10.9134 23.2546 10.6991 23.2435 10.4875L21.2462 10.5923C21.2556 10.7716 21.2607 10.9508 21.2607 11.1302H23.2607ZM23.2449 10.5399V10.5388H21.2449V10.5399H23.2449ZM-0.948767 12.2193L-0.943202 12.2925L1.05105 12.1409L1.04548 12.0677L-0.948767 12.2193ZM-0.941274 12.3146C-0.903184 12.7018 -0.846941 13.0829 -0.774116 13.4577L1.18917 13.0762C1.128 12.7614 1.08094 12.4423 1.04912 12.1188L-0.941274 12.3146ZM-0.200859 14.1798L0.149956 14.3367L0.966726 12.5111L0.61591 12.3541L-0.200859 14.1798ZM1.50836 13.1117C1.23403 12.2769 1.06289 11.3977 1.01516 10.4858L-0.982102 10.5904C-0.924786 11.6855 -0.719241 12.7393 -0.391678 13.7361L1.50836 13.1117ZM-0.982045 10.4847C-0.993423 10.6978 -0.999512 10.9128 -0.999512 11.1302H1.00049C1.00049 10.9502 1.00553 10.7708 1.01511 10.5914L-0.982045 10.4847ZM-0.999512 11.1302C-0.999512 11.3329 -0.994129 11.533 -0.984556 11.7305L1.0131 11.6336C1.00493 11.4652 1.00049 11.2975 1.00049 11.1302H-0.999512ZM-0.984381 11.734C-0.975457 11.9056 -0.962305 12.073 -0.947465 12.2348L1.04418 12.0522C1.03093 11.9078 1.02008 11.7679 1.01292 11.6301L-0.984381 11.734Z" fill="#FF9F0D" mask="url(#path-20-inside-7_2_632)"/>
<path d="M11.1305 6.73291C13.0509 6.73291 14.6513 8.10253 15.0082 9.91827C14.4927 8.26708 12.9515 7.06852 11.1305 7.06852C9.29545 7.06852 7.74871 8.28577 7.24561 9.95566C7.58778 8.12134 9.19692 6.73291 11.1305 6.73291Z" fill="#FF9F0D" stroke="#FF9F0D"/>
<mask id="path-23-inside-8_2_632" fill="white">
<path d="M7.36143 6.73239L7.36834 6.5957C7.12261 6.66205 6.81049 6.77757 6.52915 6.973C6.53941 7.03912 6.54628 7.10634 6.55941 7.17134C6.82918 6.9906 7.12391 6.8813 7.35921 6.81783L7.36212 6.74792L7.36143 6.73239ZM0.436074 9.28384C0.405814 9.1988 0.379075 9.11219 0.350815 9.02606L0 8.86911L0.0356076 9.04741L0.0503028 9.11084L0.436074 9.28384ZM14.2634 7.96918C14.2505 8.0117 14.2318 8.05401 14.2131 8.09561L14.1935 8.1417L14.1797 8.17422C14.4357 8.25257 14.7069 8.239 14.9542 8.16752C14.9935 8.08318 15.0309 7.99814 15.065 7.91131C14.8157 8.00323 14.5339 8.03527 14.2634 7.96918ZM22.0502 6.84283L22.0485 6.91048C22.0117 6.99973 21.9728 7.09256 21.932 7.18738C21.914 7.30981 21.8917 7.43089 21.8697 7.55202C21.9315 7.41289 21.9892 7.2769 22.0426 7.14756C22.0464 7.04652 22.0491 6.94543 22.0502 6.8437L22.0502 6.84283Z"/>
</mask>
<path d="M7.36143 6.73239L7.36834 6.5957C7.12261 6.66205 6.81049 6.77757 6.52915 6.973C6.53941 7.03912 6.54628 7.10634 6.55941 7.17134C6.82918 6.9906 7.12391 6.8813 7.35921 6.81783L7.36212 6.74792L7.36143 6.73239ZM0.436074 9.28384C0.405814 9.1988 0.379075 9.11219 0.350815 9.02606L0 8.86911L0.0356076 9.04741L0.0503028 9.11084L0.436074 9.28384ZM14.2634 7.96918C14.2505 8.0117 14.2318 8.05401 14.2131 8.09561L14.1935 8.1417L14.1797 8.17422C14.4357 8.25257 14.7069 8.239 14.9542 8.16752C14.9935 8.08318 15.0309 7.99814 15.065 7.91131C14.8157 8.00323 14.5339 8.03527 14.2634 7.96918ZM22.0502 6.84283L22.0485 6.91048C22.0117 6.99973 21.9728 7.09256 21.932 7.18738C21.914 7.30981 21.8917 7.43089 21.8697 7.55202C21.9315 7.41289 21.9892 7.2769 22.0426 7.14756C22.0464 7.04652 22.0491 6.94543 22.0502 6.8437L22.0502 6.84283Z" fill="#FF9F0D"/>
<path d="M7.36143 6.73239L6.3627 6.68189L6.36029 6.72951L6.36243 6.77714L7.36143 6.73239ZM7.36834 6.5957L8.36706 6.64621L8.43659 5.27148L7.10768 5.63027L7.36834 6.5957ZM6.52915 6.973L5.95864 6.1517L5.4451 6.50843L5.54097 7.12632L6.52915 6.973ZM6.55941 7.17134L5.57921 7.36935L5.87498 8.83353L7.11599 8.00213L6.55941 7.17134ZM7.35921 6.81783L7.61967 7.78331L8.32782 7.59227L8.35834 6.85945L7.35921 6.81783ZM7.36212 6.74792L8.36126 6.78954L8.36305 6.74635L8.36112 6.70317L7.36212 6.74792ZM0.436074 9.28384L0.0268933 10.1963L2.16303 11.1542L1.37821 8.9486L0.436074 9.28384ZM0.350815 9.02606L1.30098 8.7143L1.16304 8.29393L0.7592 8.11325L0.350815 9.02606ZM0 8.86911L0.408385 7.9563L-1.36005 7.16512L-0.980636 9.06495L0 8.86911ZM0.0356076 9.04741L-0.945028 9.24325L-0.942038 9.25823L-0.938591 9.2731L0.0356076 9.04741ZM0.0503028 9.11084L-0.923896 9.33653L-0.811854 9.82016L-0.358877 10.0233L0.0503028 9.11084ZM14.2634 7.96918L14.5008 6.99776L13.5815 6.77316L13.3066 7.6786L14.2634 7.96918ZM14.2131 8.09561L13.301 7.68576L13.2969 7.69489L13.293 7.70409L14.2131 8.09561ZM14.1935 8.1417L13.2734 7.75018L13.2728 7.75151L14.1935 8.1417ZM14.1797 8.17422L13.259 7.78403L12.826 8.80571L13.8871 9.13044L14.1797 8.17422ZM14.9542 8.16752L15.2318 9.1282L15.6681 9.00211L15.8602 8.59067L14.9542 8.16752ZM15.065 7.91131L15.9959 8.27675L16.8103 6.20221L14.7192 6.97303L15.065 7.91131ZM22.0502 6.84283L23.0499 6.86918L21.0515 6.79251L22.0502 6.84283ZM22.0485 6.91048L22.9732 7.29109L23.0433 7.12085L23.0481 6.93683L22.0485 6.91048ZM21.932 7.18738L21.0132 6.79265L20.9617 6.91252L20.9427 7.04158L21.932 7.18738ZM21.8697 7.55202L20.8858 7.37298L22.7834 7.95835L21.8697 7.55202ZM22.0426 7.14756L22.9669 7.52937L23.0352 7.36389L23.0419 7.18497L22.0426 7.14756ZM22.0502 6.8437L21.0515 6.79338L21.0505 6.81297L21.0503 6.83258L22.0502 6.8437ZM8.36015 6.7829L8.36706 6.64621L6.36962 6.5452L6.3627 6.68189L8.36015 6.7829ZM7.10768 5.63027C6.79522 5.71463 6.36557 5.86904 5.95864 6.1517L7.09965 7.79429C7.2554 7.6861 7.44999 7.60946 7.629 7.56113L7.10768 5.63027ZM5.54097 7.12632C5.54461 7.14979 5.54609 7.16279 5.55283 7.21106C5.55821 7.24951 5.56652 7.30655 5.57921 7.36935L7.53961 6.97333C7.53116 6.9315 7.53938 6.96182 7.51732 6.81967L5.54097 7.12632ZM7.11599 8.00213C7.26739 7.9007 7.4519 7.82857 7.61967 7.78331L7.09875 5.85234C6.79592 5.93404 6.39097 6.08051 6.00282 6.34055L7.11599 8.00213ZM8.35834 6.85945L8.36126 6.78954L6.36299 6.70629L6.36008 6.7762L8.35834 6.85945ZM8.36112 6.70317L8.36042 6.68765L6.36243 6.77714L6.36312 6.79266L8.36112 6.70317ZM1.37821 8.9486C1.35337 8.87879 1.33669 8.82315 1.30098 8.7143L-0.599344 9.33783C-0.578538 9.40124 -0.541741 9.5188 -0.50606 9.61908L1.37821 8.9486ZM0.7592 8.11325L0.408385 7.9563L-0.408385 9.78192L-0.0575696 9.93887L0.7592 8.11325ZM-0.980636 9.06495L-0.945028 9.24325L1.01624 8.85157L0.980636 8.67327L-0.980636 9.06495ZM-0.938591 9.2731L-0.923896 9.33653L1.0245 8.88515L1.00981 8.82172L-0.938591 9.2731ZM-0.358877 10.0233L0.0268933 10.1963L0.845254 8.37138L0.459483 8.19839L-0.358877 10.0233ZM13.3066 7.6786C13.3094 7.66929 13.3118 7.6625 13.3132 7.65868C13.3146 7.65488 13.3153 7.65321 13.3148 7.65426C13.3144 7.65534 13.3132 7.65817 13.3108 7.66363C13.3084 7.66929 13.3054 7.67595 13.301 7.68576L15.1253 8.50546C15.1414 8.46952 15.1862 8.372 15.2203 8.25976L13.3066 7.6786ZM13.293 7.70409L13.2734 7.75018L15.1137 8.53322L15.1333 8.48714L13.293 7.70409ZM13.2728 7.75151L13.259 7.78403L15.1005 8.56441L15.1143 8.53189L13.2728 7.75151ZM13.8871 9.13044C14.3632 9.27616 14.836 9.2426 15.2318 9.1282L14.6765 7.20685C14.5777 7.2354 14.5082 7.22897 14.4724 7.218L13.8871 9.13044ZM15.8602 8.59067C15.9058 8.49297 15.9521 8.38809 15.9959 8.27675L14.1342 7.54588C14.1097 7.60819 14.0812 7.67339 14.0481 7.74438L15.8602 8.59067ZM14.7192 6.97303C14.6211 7.00918 14.5441 7.00835 14.5008 6.99776L14.0261 8.94061C14.5237 9.06219 15.0103 8.99727 15.4109 8.8496L14.7192 6.97303ZM21.0506 6.81648L21.0488 6.88413L23.0481 6.93683L23.0499 6.86918L21.0506 6.81648ZM21.1237 6.52986C21.0888 6.61472 21.0518 6.70282 21.0132 6.79265L22.8508 7.58211C22.8937 7.48229 22.9346 7.38475 22.9732 7.29109L21.1237 6.52986ZM20.9427 7.04158C20.9276 7.14403 20.9087 7.24736 20.8858 7.37298L22.8535 7.73106C22.8747 7.61443 22.9003 7.4756 22.9213 7.33318L20.9427 7.04158ZM22.7834 7.95835C22.8498 7.80905 22.911 7.66456 22.9669 7.52937L21.1184 6.76574C21.0674 6.88924 21.0133 7.01674 20.9559 7.1457L22.7834 7.95835ZM23.0419 7.18497C23.046 7.07649 23.0489 6.96655 23.0501 6.85481L21.0503 6.83258C21.0492 6.92431 21.0468 7.01654 21.0433 7.11015L23.0419 7.18497ZM23.0489 6.89401L23.049 6.89314L21.0515 6.79251L21.0515 6.79338L23.0489 6.89401Z" fill="#FF9F0D" mask="url(#path-23-inside-8_2_632)"/>
</svg>
