<svg width="30" height="22" viewBox="0 0 30 22" fill="none" xmlns="http://www.w3.org/2000/svg">
<path d="M8.17371 7.32536C8.60477 6.9367 9.03583 6.59029 9.42463 6.20163C10.1684 5.45812 11.0897 5.5933 11.563 6.53959C11.6222 6.65788 11.6814 6.78462 11.7574 6.9198C11.8842 6.85221 12.0025 6.78462 12.1124 6.72547C12.1293 5.35673 12.6618 4.56252 13.7352 4.30905C14.7749 4.06403 15.6201 4.52872 16.2371 5.70314C16.8118 5.68624 17.3021 5.88902 17.6909 6.32837C18.0459 5.85522 18.4938 5.6102 19.0686 5.78763C19.2968 5.85522 19.5081 6.02421 19.694 6.18474C20.142 6.58184 20.5646 7.0043 20.9957 7.40985C21.0126 7.30846 21.021 7.17328 21.0548 7.02964C21.2408 6.23543 21.8832 5.68624 22.6946 5.6609C22.8721 5.65245 22.965 5.6102 23.0496 5.44122C23.506 4.52872 24.4949 4.08092 25.4584 4.33439C26.4051 4.57942 27.0474 5.44122 27.0136 6.4551C27.0052 6.69168 27.0559 6.81841 27.2587 6.96205C27.9349 7.40985 28.1716 8.27165 27.8673 9.03206C27.8335 9.11655 27.7997 9.20105 27.749 9.31933C28.1124 9.31933 28.4505 9.31933 28.7801 9.31933C29.431 9.32778 29.955 9.80093 29.9972 10.4093C30.0395 11.1021 29.5915 11.6513 28.9069 11.7189C28.7294 11.7358 28.6872 11.7949 28.6533 11.9554C27.8673 15.2928 25.9486 17.743 22.8721 19.2808C22.7453 19.3399 22.6269 19.5004 22.5847 19.6356C22.3142 20.4805 21.5873 21.0297 20.6576 21.0382C19.3052 21.0466 17.9613 21.0382 16.609 21.0382C14.2424 21.0382 11.8842 21.0382 9.5176 21.0382C8.37656 21.0382 7.768 20.5904 7.39611 19.5173C7.3623 19.4075 7.22706 19.3146 7.11719 19.2554C4.72522 18.0725 2.99252 16.2644 1.94445 13.8058C1.66553 13.1552 1.48803 12.4539 1.24292 11.7358C1.23447 11.7358 1.16685 11.7189 1.09923 11.7104C0.448412 11.6513 -0.0164579 11.119 0.000446462 10.4346C0.0173508 9.81783 0.541386 9.31088 1.1753 9.30243C2.03742 9.29398 2.89955 9.30243 3.77857 9.30243C3.92226 8.21251 4.43784 7.4014 5.4521 6.97895C6.44946 6.57339 7.38766 6.73393 8.17371 7.32536ZM27.7912 11.7358C19.2461 11.7358 10.7432 11.7358 2.20647 11.7358C2.96716 14.8281 4.72522 17.0925 7.58206 18.4781C7.7342 18.5541 7.92014 18.6133 8.08919 18.6133C12.6956 18.6217 17.3021 18.6217 21.917 18.6133C22.0353 18.6133 22.1705 18.5964 22.2804 18.5457C25.2049 17.1769 27.0221 14.9042 27.7912 11.7358ZM14.9946 10.198C10.4812 10.198 5.96769 10.198 1.45422 10.198C1.20911 10.198 0.938639 10.1642 0.887926 10.5022C0.854117 10.7303 1.04852 10.8317 1.45422 10.8317C10.4812 10.8317 19.4996 10.8317 28.5266 10.8317C28.7717 10.8317 29.0422 10.8655 29.0929 10.5275C29.1267 10.2994 28.9323 10.198 28.5266 10.198C24.0216 10.198 19.5081 10.198 14.9946 10.198ZM17.7078 9.31089C17.7078 8.94758 17.6063 8.67721 17.3443 8.49133C17.057 8.28855 16.9893 8.06043 17.133 7.73091C17.2683 7.42675 17.2006 7.12258 16.9724 6.87756C16.7358 6.62408 16.4484 6.54804 16.1103 6.64098C15.637 6.76772 15.4933 6.64099 15.375 6.15094C15.3158 5.89747 15.1721 5.63555 14.9946 5.44967C14.6058 5.06101 13.9888 5.04411 13.5408 5.34828C13.0929 5.6609 12.9069 6.21008 13.0929 6.74237C13.1859 6.99584 13.2028 7.22397 12.9576 7.3845C12.8647 7.44364 12.7463 7.45209 12.628 7.48589C12.1969 7.60418 11.9265 8.00128 11.9856 8.40684C12.0533 8.82929 12.5181 9.29399 12.8731 9.29399C14.1156 9.29399 15.3581 9.29399 16.609 9.29399C16.9724 9.31088 17.3274 9.31089 17.7078 9.31089ZM21.7817 8.40684C22.0606 8.66031 22.3227 8.91378 22.6016 9.14191C22.7115 9.23484 22.8721 9.31089 23.0073 9.31089C24.0131 9.32778 25.0105 9.30243 26.0163 9.32778C26.3459 9.33623 26.5826 9.26019 26.8108 9.01517C27.0474 8.7617 27.1573 8.48288 27.0728 8.15337C26.9883 7.8323 26.7685 7.63797 26.4389 7.55348C25.974 7.43519 25.881 7.25777 26.0416 6.80152C26.2783 6.11714 25.9148 5.39897 25.2471 5.22154C24.5625 5.04411 23.8948 5.45812 23.7342 6.15939C23.6243 6.66633 23.506 6.73392 22.9904 6.61564C22.6777 6.5396 22.3734 6.58184 22.1452 6.83531C21.917 7.07188 21.8324 7.35915 21.9508 7.68022C22.0606 7.91679 22.0691 8.15337 21.7817 8.40684ZM21.638 19.5342C17.1837 19.5342 12.7971 19.5342 8.3512 19.5342C8.60477 19.9567 8.9344 20.1426 9.38237 20.1341C12.18 20.1341 14.9693 20.1341 17.7669 20.1341C18.7389 20.1341 19.7109 20.1341 20.6745 20.1341C21.0971 20.1341 21.4098 19.9398 21.638 19.5342ZM21.4859 9.30243C20.6153 8.41528 19.7955 7.57038 18.9671 6.73393C18.7981 6.56495 18.5953 6.59029 18.4685 6.81842C18.3332 7.07189 18.2065 7.32536 18.105 7.58728C18.0628 7.69712 18.0543 7.883 18.1219 7.95904C18.4431 8.34769 18.6122 8.78704 18.6122 9.29399C19.5588 9.30244 20.4801 9.30243 21.4859 9.30243ZM8.29204 9.30243C8.25823 8.43218 7.48063 7.69712 6.6016 7.67177C5.62115 7.63797 4.82664 8.32234 4.71676 9.30243C5.90007 9.30243 7.09183 9.30243 8.29204 9.30243ZM8.89214 8.06042C9.02738 8.48288 9.15416 8.87998 9.2894 9.29399C9.95712 9.29399 10.6417 9.29399 11.3771 9.29399C11.0982 8.82929 11.0052 8.35614 11.1404 7.8492C11.1573 7.7985 11.132 7.72246 11.1066 7.67177C10.9798 7.39295 10.8446 7.12258 10.7009 6.85221C10.5572 6.59029 10.3459 6.55649 10.1431 6.76772C9.71201 7.20707 9.2894 7.64642 8.89214 8.06042Z" fill="#FF9F0D"/>
<path d="M18.0374 3.05857C18.0458 1.19978 19.1192 0.202789 20.8942 0.0169094C21.2745 -0.0253359 21.4351 0.0929479 21.4689 0.473155C21.6549 2.29815 20.8604 3.59931 18.891 3.92882C18.1895 4.04711 18.0374 3.87813 18.0374 3.05857ZM18.9671 2.97408C20.0574 2.8051 20.6829 1.8926 20.5561 0.980099C19.508 1.19133 18.8995 1.95174 18.9671 2.97408Z" fill="#FF9F0D"/>
<path d="M11.4785 0.00844698C13.5323 0.016896 14.2677 1.31805 14.479 2.83888C14.5297 3.19374 14.3438 3.42186 13.9888 3.41341C13.5323 3.41341 13.0506 3.42186 12.6111 3.31203C11.3939 3.01631 10.8107 2.12916 10.5741 0.963188C10.5572 0.887147 10.5487 0.819556 10.5318 0.743515C10.4388 0.228123 10.6079 0.0168981 11.1319 0C11.2503 0.00844905 11.3601 0.00844698 11.4785 0.00844698ZM13.4647 2.51781C13.4056 1.58842 12.5181 0.802659 11.5123 0.929395C11.5883 1.87569 12.5181 2.62765 13.4647 2.51781Z" fill="#FF9F0D"/>
<path d="M5.99292 3.28675C6.12815 2.93189 6.23803 2.56013 6.41553 2.22217C6.54231 1.9687 6.80433 1.92645 7.04099 2.08699C7.88621 2.66152 8.72298 3.2445 9.55129 3.83594C9.80486 4.02181 9.79641 4.24994 9.59355 4.52876C9.12023 5.17089 8.19894 5.4497 7.41289 5.18778C6.60993 4.91741 6.07744 4.1739 6.07744 3.32055C6.04363 3.3121 6.01828 3.2952 5.99292 3.28675ZM6.96492 3.13467C6.93957 3.66696 7.10861 4.03026 7.51431 4.25839C7.8355 4.43582 8.17358 4.45272 8.54548 4.24149C8.02144 3.86129 7.52277 3.51487 6.96492 3.13467Z" fill="#FF9F0D"/>
</svg>
