<svg width="26" height="24" viewBox="0 0 26 24" fill="none" xmlns="http://www.w3.org/2000/svg">
<path fill-rule="evenodd" clip-rule="evenodd" d="M1.63543 20.063H23.9846C24.3355 20.063 24.62 20.3475 24.62 20.6984C24.62 20.8669 24.553 21.0286 24.4339 21.1477L22.9769 22.6047H2.64309L1.18611 21.1477C0.937962 20.8996 0.937962 20.4973 1.18611 20.2491C1.30528 20.1299 1.4669 20.063 1.63543 20.063Z" stroke="#FF9F0D" stroke-linecap="round"/>
<path fill-rule="evenodd" clip-rule="evenodd" d="M6.71007 7.35449C7.28634 7.35449 7.82061 7.5604 8.23681 7.90732C7.85818 8.22001 7.57776 8.64901 7.45051 9.14554L7.40551 9.36233L5.69338 20.0631H2.64331L4.35544 9.36233C4.54053 8.20551 5.53854 7.35449 6.71007 7.35449ZM18.9104 7.35449C20.0819 7.35449 21.0799 8.20551 21.265 9.36233L22.9771 20.0631H19.927L18.2149 9.36233C18.1209 8.77454 17.8169 8.26569 17.387 7.90732C17.8009 7.55997 18.3347 7.35449 18.9104 7.35449ZM12.8102 7.35449C13.9585 7.35449 14.9142 8.23673 15.0057 9.3814L15.8603 20.0631H9.76014L10.6147 9.3814C10.7063 8.23673 11.6619 7.35449 12.8102 7.35449ZM14.303 7.93755L14.3883 7.86306C14.7961 7.54295 15.309 7.35449 15.8603 7.35449C17.0318 7.35449 18.0298 8.20551 18.2149 9.36233L19.927 20.0631H15.8603L15.0057 9.3814C14.965 8.87266 14.7537 8.41575 14.4306 8.0651L14.303 7.93755ZM9.76014 7.35449C10.3519 7.35449 10.8993 7.57158 11.3201 7.93552C10.9234 8.30023 10.6606 8.80788 10.6147 9.3814L9.76014 20.0631H5.69338L7.40551 9.36233C7.5906 8.20551 8.58861 7.35449 9.76014 7.35449Z" stroke="#FF9F0D" stroke-linecap="round"/>
<path fill-rule="evenodd" clip-rule="evenodd" d="M9.52044 5.42556C7.73835 5.06915 6.45557 3.5044 6.45557 1.68701V1L9.745 1.65789C11.5271 2.01431 12.8099 3.57905 12.8099 5.39644C12.8099 3.57905 14.0927 2.01431 15.8748 1.65789L19.1642 1V1.68701C19.1642 3.5044 17.8814 5.06915 16.0993 5.42556L12.8099 6.08345L9.52044 5.42556Z" stroke="#FF9F0D" stroke-linecap="round"/>
</svg>
