<svg width="20" height="21" viewBox="0 0 20 21" fill="none" xmlns="http://www.w3.org/2000/svg">
<path d="M1.27271 7.887V18.848C1.27271 19.3353 1.64652 19.7273 2.11154 19.7273H12.5162C13.264 19.7273 13.647 18.7811 13.118 18.2173L2.71336 7.26596C2.18454 6.70214 1.27271 7.09388 1.27271 7.887Z" fill="#FF9F0D"/>
<path d="M0.71067 9.2848L2.30852 7.70817C2.50061 7.52634 3.00699 7.72545 3.19047 7.91603L13.1359 17.9128C13.2757 18.0513 13.5201 18.5798 13.2232 18.9783L11.9309 20.1998C11.7824 20.4077 11.6166 20.4164 11.4331 20.2344L0.990098 10.125C0.780576 9.92586 0.501148 9.49266 0.71067 9.2848Z" fill="white"/>
<path d="M11.7761 21C11.607 21 11.3844 20.9471 11.1531 20.7173L0.516187 10.4176C0.427361 10.3382 0 9.89646 0 9.3842C0 9.17224 0.0800428 8.969 0.231545 8.82776L1.85156 7.22006C2.33222 6.76069 3.16898 7.11408 3.48037 7.43202L13.6185 17.6255C13.8943 17.8906 14.2414 18.7121 13.7608 19.3745L13.6985 19.4452L12.4078 20.6642C12.212 20.9117 11.9895 20.9822 11.8292 21H11.7761ZM1.05912 9.446C1.09485 9.51672 1.15713 9.60507 1.23717 9.6845L11.7581 19.8782L12.9508 18.7564C13.031 18.6063 12.9242 18.3854 12.8885 18.3501L2.7504 8.15643C2.70589 8.11226 2.58133 8.05937 2.49231 8.03283L1.05912 9.446Z" fill="#FF9F0D"/>
<path d="M9.0007 18.4545C8.60401 18.4545 8.37361 18.2041 8.17982 17.9795C8.14301 17.945 8.11529 17.9018 8.06917 17.8671L1.70545 11.8396L1.69614 11.8309C1.35489 11.4681 1.20742 10.9846 1.29966 10.5095C1.39191 10.0345 1.69614 9.62002 2.15736 9.38685C2.70151 9.10197 3.43924 8.74776 3.67916 8.6701C3.83593 8.61839 3.97429 8.55778 4.10356 8.49735C4.37098 8.38503 4.61999 8.27271 4.93353 8.27271C5.71739 8.27271 6.35378 8.91179 8.00464 10.9671C9.27743 12.5561 10.8729 13.8084 12.0441 14.7323C12.4683 15.0691 12.8373 15.3542 13.1047 15.5959C13.2799 15.7599 13.3721 15.9758 13.363 16.2175C13.3262 16.7875 12.6989 17.3489 12.4592 17.5129L12.3762 17.5734L9.59097 18.2729C9.42489 18.3596 9.23131 18.4545 9.0007 18.4545Z" fill="white"/>
<path d="M9.30411 19.7274C8.72939 19.7274 8.39998 19.3244 8.18174 19.0577L8.16545 19.0382C8.13838 19.0099 8.10763 18.9779 8.08483 18.9456L1.81049 12.2926L1.8056 12.281C1.37278 11.77 1.19362 11.1084 1.30498 10.453C1.41757 9.79906 1.80133 9.23899 2.35773 8.91619C2.82904 8.63392 3.63809 8.20059 3.91252 8.09583C4.0078 8.05615 4.09148 8.01732 4.17535 7.97891L4.34861 7.89954C4.61632 7.77622 4.91967 7.63647 5.29142 7.63647C6.29083 7.63647 7.04247 8.54559 8.64449 10.7779C9.86154 12.4816 11.408 13.8407 12.5371 14.8328L12.5562 14.8496C12.9123 15.1594 13.3172 15.5164 13.623 15.8159C13.8889 16.0858 14.022 16.4524 13.997 16.8471C13.9363 17.8191 12.9597 18.5866 12.9499 18.5934L12.796 18.7095L12.6238 18.7611L10.0399 19.4882L10.0256 19.4976C9.79761 19.6504 9.55493 19.7274 9.30411 19.7274ZM5.29142 8.50057C5.06849 8.50057 4.87468 8.59615 4.62915 8.71713C4.50211 8.77985 4.35818 8.8509 4.19042 8.91704C4.00658 8.98105 3.30339 9.36103 2.75982 9.67552C2.42593 9.86776 2.19608 10.2029 2.12931 10.5949C2.06192 10.9902 2.1684 11.3922 2.42145 11.6975L8.6903 18.3438C8.73285 18.3937 8.77438 18.4447 8.81265 18.4916C8.98387 18.7018 9.10765 18.8537 9.30391 18.8537C9.4167 18.8537 9.53254 18.8023 9.68849 18.6822L12.4208 17.9115L12.4375 17.8987C12.7164 17.6836 13.1393 17.184 13.1617 16.795C13.1696 16.6555 13.1269 16.5354 13.0377 16.4475C12.7736 16.1812 12.4074 15.8582 11.9833 15.4839C10.8286 14.4654 9.24691 13.0702 7.97551 11.2962C6.40952 9.10159 5.83255 8.50057 5.29142 8.50057Z" fill="#FF9F0D"/>
<path d="M7.3997 17.8182C6.02866 17.8182 4.63913 17.1785 3.685 16.1122C2.11017 14.357 2.17499 11.9864 3.83333 10.8216C4.4262 10.4034 5.16719 10.1819 5.96385 10.1819C7.33489 10.1819 8.72421 10.8216 9.67854 11.8881C11.2534 13.6433 11.1886 16.014 9.53022 17.1787C8.93735 17.5968 8.19636 17.8182 7.3997 17.8182Z" fill="white"/>
<path d="M7.33274 18.4545C5.97012 18.4545 4.5962 17.7199 3.65778 16.4893C2.1019 14.4576 2.18892 11.6843 3.85141 10.307C4.45342 9.80859 5.20424 9.54541 6.0223 9.54541C7.37663 9.54541 8.75036 10.2804 9.69745 11.511C10.4362 12.4761 10.834 13.6289 10.8177 14.7569C10.8013 15.9653 10.3345 17.008 9.50363 17.6927C8.90162 18.1911 8.1508 18.4545 7.33274 18.4545ZM6.0223 10.3373C5.38789 10.3373 4.80265 10.541 4.33004 10.9264C3.00133 12.0262 2.97138 14.2947 4.26299 15.9835C5.06466 17.024 6.21217 17.6452 7.33274 17.6452C7.96715 17.6452 8.55239 17.4415 9.025 17.0561C10.3537 15.9561 10.3837 13.6878 9.09206 11.9991C8.29038 10.9583 7.14268 10.3373 6.0223 10.3373Z" fill="#FF9F0D"/>
<path d="M2.02243 8.72854C2.02243 8.72854 3.25823 7.70291 4.07391 8.72854C4.8894 9.75436 4.35399 10.1336 5.41668 10.3922C6.47955 10.6507 5.86987 11.8317 6.52057 12.116C7.17145 12.4004 8.44845 11.8661 8.48133 13.1591C8.5144 14.452 8.70377 14.4002 9.18985 14.8226C9.68425 15.2449 10.8788 14.3658 10.9941 15.6329C11.1013 16.9086 10.9611 16.8912 11.3071 17.3223C11.9251 18.098 10.4585 18.5806 9.52758 18.4256C8.59662 18.2791 9.09914 17.9342 8.72853 17.6153C8.35773 17.2964 1.27271 9.05618 1.27271 9.05618C1.27271 9.05618 1.26458 8.84065 2.02243 8.72854Z" fill="white"/>
<path d="M10.5712 19.7274C10.4076 19.7274 10.2528 19.7178 10.1073 19.6893C9.42513 19.5753 9.12483 19.3379 9.06118 18.8158C9.052 18.7304 9.052 18.7304 9.02466 18.7018C8.61542 18.3505 2.05619 10.7446 0.746266 9.22522L0.646302 9.11108L0.637122 8.94988C0.618965 8.55104 0.982914 8.28507 1.71061 8.16156C2.33834 7.69628 3.59359 7.20246 4.46715 8.29444C4.87638 8.81679 5.01286 9.20605 5.11303 9.49097C5.22218 9.81379 5.24033 9.86128 5.7226 9.9752C6.65961 10.2031 6.77793 10.9628 6.85056 11.4281C6.89605 11.7512 6.93257 11.8555 7.01438 11.8934C7.16901 11.9598 7.42361 11.9694 7.66924 11.9788C8.31512 12.0073 9.40676 12.0452 9.44328 13.4411C9.47062 14.457 9.54325 14.5141 9.8617 14.7705C9.92535 14.8273 9.99818 14.8844 10.08 14.9511C10.1528 15.0175 10.4348 14.989 10.6167 14.97C11.099 14.9225 12.1086 14.8371 12.2178 16.1476C12.2543 16.5748 12.2633 16.8788 12.2722 17.0971C12.2904 17.5434 12.2904 17.5434 12.4632 17.7617C12.7453 18.1131 12.809 18.5215 12.6178 18.8728C12.2814 19.471 11.3354 19.7274 10.5712 19.7274ZM9.89801 18.7398C9.93433 18.7587 10.0345 18.7966 10.2346 18.8251C10.9897 18.9486 11.8175 18.6258 11.8812 18.4359C11.8812 18.4359 11.8722 18.398 11.8175 18.3315C11.4809 17.9137 11.4536 17.7142 11.4354 17.1446C11.4264 16.9357 11.4173 16.6412 11.3809 16.233C11.3446 15.8248 11.29 15.7962 10.6896 15.8531C10.3075 15.891 9.87986 15.9291 9.54325 15.6346C9.47042 15.5778 9.40676 15.5207 9.35229 15.4732C8.83371 15.0554 8.64276 14.7894 8.60645 13.4696C8.59726 12.9473 8.4155 12.8904 7.65129 12.8619C7.33283 12.8523 6.99622 12.8333 6.7051 12.7098C6.16836 12.482 6.09573 11.9503 6.03188 11.5704C5.95905 11.1147 5.92274 10.9247 5.54981 10.8391C4.69461 10.6302 4.51264 10.2978 4.33985 9.79463C4.24886 9.54782 4.15787 9.26291 3.83942 8.86406C3.21169 8.07596 2.20206 8.89238 2.16554 8.9305L2.07455 9.00652L1.96541 9.02547C1.8836 9.03506 1.81077 9.05401 1.74712 9.06359C4.84925 12.6623 9.25233 17.7425 9.57976 18.0368C9.8619 18.2743 9.89822 18.5592 9.91637 18.711C9.88904 18.7112 9.89801 18.7208 9.89801 18.7398Z" fill="#FF9F0D"/>
<path d="M0 9.1539V20.1203C0 20.6078 0.354141 21 0.794686 21H10.6517C11.36 21 11.7231 20.0534 11.2219 19.4895L1.36503 8.53255C0.864042 7.97787 0 8.37003 0 9.1539Z" fill="white"/>
<path d="M1.23789 20.9998C0.55534 20.9998 0 20.447 0 19.7673V9.50715C0 9.00067 0.300918 8.5523 0.766888 8.3651C0.917246 8.30377 1.07545 8.27271 1.23809 8.27271C1.56759 8.27271 1.88964 8.40499 2.12152 8.63608L12.3626 18.8873C12.7247 19.2478 12.8259 19.7641 12.6267 20.2347C12.4272 20.7067 11.9876 21 11.4792 21H1.23789V20.9998ZM1.24675 9.09507C1.18012 9.09507 1.12638 9.11371 1.09438 9.12473L1.07264 9.13315C0.867328 9.23537 0.824253 9.39772 0.824253 9.51577V19.7671C0.824253 19.9952 1.01769 20.188 1.24695 20.188H11.488C11.6068 20.188 11.77 20.1449 11.8725 19.9403C11.918 19.8497 11.9522 19.6503 11.7918 19.4791L1.53921 9.21613C1.4597 9.13676 1.35846 9.09507 1.24675 9.09507Z" fill="#FF9F0D"/>
<path d="M7 11.1362C7 11.3118 7.14248 11.4545 7.31818 11.4545C7.49388 11.4545 7.63636 11.3121 7.63636 11.1362C7.63636 10.9605 7.49388 10.8181 7.31818 10.8181C7.14248 10.8181 7 10.9605 7 11.1362Z" fill="#FF9F0D"/>
<path d="M7.63647 19.091C7.63647 19.4424 7.77891 19.7273 7.95466 19.7273C8.1304 19.7273 8.27284 19.4424 8.27284 19.091C8.27284 18.7395 8.1304 18.4546 7.95466 18.4546C7.77891 18.4546 7.63647 18.7395 7.63647 19.091Z" fill="#FF9F0D"/>
<path d="M5.72729 15.9089C5.72729 16.1364 5.78788 16.3463 5.88639 16.4602C5.98475 16.5738 6.1062 16.5738 6.20457 16.4602C6.30307 16.3463 6.36366 16.1364 6.36366 15.9089C6.36366 15.6817 6.30307 15.4715 6.20457 15.3579C6.1062 15.2443 5.98475 15.2443 5.88639 15.3579C5.78788 15.4715 5.72729 15.6817 5.72729 15.9089Z" fill="#FF9F0D"/>
<path d="M5.72729 18.1364C5.72729 18.25 5.78788 18.3551 5.88639 18.4119C5.98475 18.4687 6.1062 18.4687 6.20457 18.4119C6.30307 18.3551 6.36366 18.25 6.36366 18.1364C6.36366 18.0226 6.30307 17.9177 6.20457 17.8607C6.1062 17.8039 5.98475 17.8039 5.88639 17.8607C5.78788 17.9177 5.72729 18.0226 5.72729 18.1364Z" fill="#FF9F0D"/>
<path d="M3.81812 16.8636C3.81812 16.9773 3.87884 17.0824 3.97721 17.1392C4.07571 17.196 4.19702 17.196 4.29539 17.1392C4.39389 17.0824 4.45448 16.9773 4.45448 16.8636C4.45448 16.7499 4.39389 16.6449 4.29539 16.5881C4.19702 16.5312 4.07557 16.5312 3.97721 16.5881C3.87884 16.6449 3.81812 16.75 3.81812 16.8636Z" fill="#FF9F0D"/>
<path d="M3.81812 13.6816C3.81812 13.7954 3.8787 13.9003 3.97721 13.9573C4.07557 14.0141 4.19702 14.0141 4.29539 13.9573C4.39375 13.9003 4.45448 13.7954 4.45448 13.6816C4.45448 13.568 4.39389 13.4629 4.29539 13.4061C4.19688 13.3493 4.07557 13.3493 3.97721 13.4061C3.8787 13.4628 3.81812 13.568 3.81812 13.6816Z" fill="#FF9F0D"/>
<path d="M1.27271 16.8636C1.27271 17.0393 1.55759 17.1818 1.90907 17.1818C2.26055 17.1818 2.54543 17.0393 2.54543 16.8636C2.54543 16.7499 2.42426 16.6448 2.22725 16.588C2.03052 16.5312 1.78762 16.5312 1.59089 16.588C1.39388 16.6448 1.27271 16.7499 1.27271 16.8636Z" fill="#FF9F0D"/>
<path d="M2.54541 18.1362C2.54541 18.25 2.66658 18.3549 2.86359 18.4119C3.06032 18.4687 3.30323 18.4687 3.49996 18.4119C3.69697 18.3549 3.81814 18.25 3.81814 18.1362C3.81814 18.0226 3.69697 17.9175 3.49996 17.8607C3.30323 17.8039 3.06032 17.8039 2.86359 17.8607C2.66658 17.9175 2.54541 18.0226 2.54541 18.1362Z" fill="#FF9F0D"/>
<path d="M7 17.5001C7 17.6758 7.14244 17.8182 7.31818 17.8182C7.49392 17.8182 7.63636 17.6758 7.63636 17.5001C7.63636 17.3243 7.49392 17.1819 7.31818 17.1819C7.14244 17.1817 7 17.3243 7 17.5001Z" fill="#FF9F0D"/>
<path d="M2.54541 13.6817C2.54541 13.8575 2.68799 13.9999 2.86359 13.9999C3.03933 13.9999 3.18177 13.8575 3.18177 13.6817C3.18177 13.568 3.12119 13.4631 3.02268 13.4061C2.92418 13.3493 2.80287 13.3493 2.7045 13.4061C2.60614 13.4631 2.54541 13.568 2.54541 13.6817Z" fill="#FF9F0D"/>
<path d="M18.7273 13.113L18.7273 2.152C18.7273 1.66468 18.3535 1.27273 17.8885 1.27273L7.48383 1.27273C6.736 1.27273 6.35298 2.21886 6.882 2.78268L17.2866 13.734C17.8155 14.2979 18.7273 13.9061 18.7273 13.113Z" fill="#FF9F0D"/>
<path d="M19.2893 11.7152L17.6915 13.2918C17.4994 13.4737 16.993 13.2745 16.8095 13.084L6.86409 3.08725C6.72428 2.94874 6.4799 2.42015 6.77676 2.02172L8.06914 0.800199C8.21756 0.592338 8.38342 0.583596 8.5669 0.76562L19.0099 10.875C19.2194 11.0741 19.4989 11.5073 19.2893 11.7152Z" fill="white"/>
<path d="M8.22392 -7.58231e-08C8.39299 -6.10428e-08 8.61555 0.0528888 8.8469 0.282674L19.4838 10.5824C19.5726 10.6618 20 11.1035 20 11.6158C20 11.8278 19.92 12.031 19.7685 12.1722L18.1484 13.7799C17.6678 14.2393 16.831 13.8859 16.5196 13.568L6.38154 3.37446C6.10568 3.10942 5.75856 2.28794 6.23922 1.62553L6.3015 1.55481L7.59216 0.335761C7.78798 0.0883464 8.01054 0.0178279 8.17083 -8.04651e-08L8.22392 -7.58231e-08ZM18.9409 11.554C18.9051 11.4833 18.8429 11.3949 18.7628 11.3155L8.24189 1.12178L7.04923 2.24357C6.96899 2.39372 7.07578 2.61459 7.11151 2.64985L17.2496 12.8436C17.2941 12.8877 17.4187 12.9406 17.5077 12.9672L18.9409 11.554Z" fill="#FF9F0D"/>
<path d="M10.9993 2.54548C11.396 2.54548 11.6264 2.79588 11.8202 3.02053C11.857 3.055 11.8847 3.09819 11.9308 3.13286L18.2946 9.16042L18.3039 9.16913C18.6451 9.53186 18.7926 10.0154 18.7003 10.4905C18.6081 10.9655 18.3039 11.38 17.8426 11.6132C17.2985 11.898 16.5608 12.2522 16.3208 12.3299C16.1641 12.3816 16.0257 12.4422 15.8964 12.5026C15.629 12.615 15.38 12.7273 15.0665 12.7273C14.2826 12.7273 13.6462 12.0882 11.9954 10.0329C10.7226 8.44386 9.12714 7.19164 7.95591 6.26767C7.53172 5.93089 7.16274 5.64582 6.89532 5.40413C6.72014 5.2401 6.6279 5.02417 6.637 4.78247C6.67382 4.21252 7.30111 3.6511 7.54082 3.48706L7.62375 3.42664L10.409 2.72713C10.5751 2.64037 10.7687 2.54548 10.9993 2.54548Z" fill="white"/>
<path d="M10.6959 1.27262C11.2706 1.27262 11.6 1.67565 11.8183 1.94234L11.8345 1.96176C11.8616 1.99013 11.8924 2.02214 11.9152 2.05435L18.1895 8.70745L18.1944 8.71897C18.6272 9.22996 18.8064 9.89158 18.695 10.547C18.5824 11.2009 18.1987 11.761 17.6423 12.0838C17.171 12.3661 16.3619 12.7994 16.0875 12.9042C15.9922 12.9439 15.9085 12.9827 15.8246 13.0211L15.6514 13.1005C15.3837 13.2238 15.0803 13.3635 14.7086 13.3635C13.7092 13.3635 12.9575 12.4544 11.3555 10.2221C10.1385 8.51841 8.59202 7.15933 7.46293 6.16722L7.44379 6.15037C7.08772 5.84058 6.68278 5.48363 6.377 5.18408C6.11111 4.91418 5.97797 4.54764 6.00301 4.15293C6.06368 3.18087 7.04028 2.41343 7.05005 2.4066L7.20397 2.29054L7.3762 2.23891L9.96013 1.51179L9.97438 1.5024C10.2024 1.34964 10.4451 1.27262 10.6959 1.27262ZM14.7086 12.4994C14.9315 12.4994 15.1253 12.4038 15.3709 12.2829C15.4979 12.2201 15.6418 12.1491 15.8096 12.083C15.9934 12.019 16.6966 11.639 17.2402 11.3245C17.5741 11.1322 17.8039 10.7971 17.8707 10.4051C17.9381 10.0098 17.8316 9.60781 17.5785 9.3025L11.3097 2.65623C11.2672 2.60631 11.2256 2.55531 11.1873 2.50838C11.0161 2.29822 10.8923 2.14631 10.6961 2.14631C10.5833 2.14631 10.4675 2.19773 10.3115 2.31785L7.57918 3.08849L7.56248 3.10129C7.28357 3.31636 6.86072 3.81604 6.83833 4.20499C6.83039 4.34452 6.87314 4.46464 6.96231 4.55254C7.22636 4.81881 7.59261 5.14183 8.01669 5.51606C9.17143 6.53462 10.7531 7.92976 12.0245 9.70382C13.5905 11.8984 14.1674 12.4994 14.7086 12.4994Z" fill="#FF9F0D"/>
<path d="M12.6003 3.18175C13.9713 3.18175 15.3609 3.8215 16.315 4.88782C17.8898 6.64299 17.825 9.01364 16.1667 10.1784C15.5738 10.5966 14.8328 10.8181 14.0362 10.8181C12.6651 10.8181 11.2758 10.1784 10.3215 9.11187C8.74663 7.35669 8.81144 4.98604 10.4698 3.82132C11.0627 3.40322 11.8036 3.18175 12.6003 3.18175Z" fill="white"/>
<path d="M12.6673 2.5455C14.0299 2.5455 15.4038 3.28009 16.3422 4.51072C17.8981 6.54242 17.8111 9.31574 16.1486 10.693C15.5466 11.1914 14.7958 11.4546 13.9777 11.4546C12.6234 11.4546 11.2496 10.7196 10.3025 9.48898C9.56379 8.52387 9.16596 7.37105 9.18235 6.24307C9.19874 5.03473 9.6655 3.99199 10.4964 3.30726C11.0984 2.80887 11.8492 2.5455 12.6673 2.5455ZM13.9777 10.6627C14.6121 10.6627 15.1974 10.459 15.67 10.0736C16.9987 8.97377 17.0286 6.70529 15.737 5.01654C14.9353 3.97596 13.7878 3.35478 12.6673 3.35478C12.0329 3.35478 11.4476 3.55851 10.975 3.94389C9.64629 5.04392 9.61634 7.3122 10.9079 9.00095C11.7096 10.0417 12.8573 10.6627 13.9777 10.6627Z" fill="#FF9F0D"/>
<path d="M17.9776 12.2715C17.9776 12.2715 16.7418 13.2971 15.9261 12.2715C15.1106 11.2456 15.646 10.8664 14.5833 10.6078C13.5204 10.3493 14.1301 9.16829 13.4794 8.88395C12.8286 8.59961 11.5516 9.13388 11.5187 7.84093C11.4856 6.54797 11.2962 6.59978 10.8101 6.17743C10.3158 5.75507 9.12115 6.63418 9.00587 5.36713C8.89871 4.09138 9.03894 4.10877 8.6929 3.67772C8.07491 2.90203 9.54146 2.41937 10.4724 2.57439C11.4034 2.72091 10.9009 3.06575 11.2715 3.38469C11.6423 3.70363 18.7273 11.9438 18.7273 11.9438C18.7273 11.9438 18.7354 12.1593 17.9776 12.2715Z" fill="white"/>
<path d="M9.42877 1.27262C9.59238 1.27262 9.74722 1.2822 9.89268 1.31073C10.5749 1.42466 10.8752 1.66209 10.9388 2.18423C10.948 2.26962 10.948 2.26962 10.9753 2.29815C11.3846 2.64951 17.9438 10.2554 19.2537 11.7748L19.3537 11.8889L19.3629 12.0501C19.381 12.449 19.0171 12.7149 18.2894 12.8384C17.6617 13.3037 16.4064 13.7975 15.5329 12.7056C15.1236 12.1832 14.9871 11.7939 14.887 11.509C14.7778 11.1862 14.7597 11.1387 14.2774 11.0248C13.3404 10.7969 13.2221 10.0372 13.1494 9.57188C13.1039 9.24885 13.0674 9.1445 12.9856 9.1066C12.831 9.04016 12.5764 9.03058 12.3308 9.02121C11.6849 8.99267 10.5932 8.95477 10.5567 7.55893C10.5294 6.54297 10.4568 6.4859 10.1383 6.22952C10.0747 6.17266 10.0018 6.11559 9.92001 6.04894C9.84718 5.9825 9.56525 6.01104 9.38327 6.02999C8.901 6.07748 7.89137 6.16287 7.78223 4.85241C7.74571 4.42525 7.73673 4.12116 7.72776 3.9029C7.7096 3.45657 7.7096 3.45657 7.53681 3.2383C7.25466 2.88694 7.19101 2.47852 7.38217 2.12716C7.71858 1.529 8.66456 1.27262 9.42877 1.27262ZM10.102 2.26025C10.0657 2.2413 9.96551 2.20339 9.76538 2.17486C9.01035 2.05135 8.18249 2.37417 8.11884 2.56412C8.11884 2.56412 8.12781 2.60202 8.18249 2.66846C8.5191 3.08626 8.54644 3.28578 8.56459 3.85541C8.57357 4.06431 8.58275 4.35881 8.61906 4.76702C8.65538 5.17523 8.71005 5.20377 9.31044 5.14691C9.69255 5.10901 10.1201 5.07089 10.4568 5.36539C10.5296 5.42225 10.5932 5.47932 10.6477 5.5268C11.1663 5.9446 11.3572 6.21057 11.3936 7.53039C11.4027 8.05274 11.5845 8.1096 12.3487 8.13813C12.6672 8.14771 13.0038 8.16667 13.2949 8.29017C13.8316 8.51802 13.9043 9.04974 13.9681 9.42964C14.041 9.88534 14.0773 10.0753 14.4502 10.1609C15.3054 10.3698 15.4874 10.7022 15.6602 11.2054C15.7511 11.4522 15.8421 11.7371 16.1606 12.1359C16.7883 12.924 17.7979 12.1076 17.8345 12.0695L17.9254 11.9935L18.0346 11.9745C18.1164 11.9649 18.1892 11.946 18.2529 11.9364C15.1507 8.33766 10.7477 3.25746 10.4202 2.96318C10.1381 2.72574 10.1018 2.44082 10.0836 2.289C10.111 2.28878 10.102 2.2792 10.102 2.26025Z" fill="#FF9F0D"/>
<path d="M20 11.8461L20 0.879741C20 0.392176 19.6459 2.19035e-05 19.2053 2.1865e-05L9.34826 2.10033e-05C8.63998 2.09414e-05 8.27692 0.946634 8.77811 1.51053L18.635 12.4675C19.136 13.0221 20 12.63 20 11.8461Z" fill="white"/>
<path d="M18.7621 0.000221144C19.4447 0.000221204 20 0.553006 20 1.23266L20 11.4928C20 11.9993 19.6991 12.4477 19.2331 12.6349C19.0828 12.6962 18.9245 12.7273 18.7619 12.7273C18.4324 12.7273 18.1104 12.595 17.8785 12.3639L7.63741 2.11275C7.2753 1.75217 7.17405 1.23587 7.37332 0.765261C7.5728 0.293249 8.0124 2.08865e-05 8.52084 2.0931e-05L18.7621 2.18263e-05L18.7621 0.000221144ZM18.7533 11.9049C18.8199 11.9049 18.8736 11.8863 18.9056 11.8753L18.9274 11.8669C19.1327 11.7646 19.1757 11.6023 19.1757 11.4842L19.1757 1.23286C19.1757 1.00477 18.9823 0.81196 18.7531 0.81196L8.51198 0.811959C8.39322 0.811959 8.22998 0.855052 8.12753 1.05969C8.08204 1.15028 8.04782 1.34971 8.20824 1.52088L18.4608 11.7839C18.5403 11.8632 18.6415 11.9049 18.7533 11.9049Z" fill="#FF9F0D"/>
<path d="M13 9.86384C13 9.68822 12.8575 9.54552 12.6818 9.54552C12.5061 9.54552 12.3636 9.68794 12.3636 9.86384C12.3636 10.0395 12.5061 10.1819 12.6818 10.1819C12.8575 10.1819 13 10.0395 13 9.86384Z" fill="#FF9F0D"/>
<path d="M12.3635 1.90905C12.3635 1.55756 12.2211 1.27268 12.0453 1.27268C11.8696 1.27268 11.7272 1.55756 11.7272 1.90905C11.7272 2.26053 11.8696 2.54541 12.0453 2.54541C12.2211 2.54541 12.3635 2.26053 12.3635 1.90905Z" fill="#FF9F0D"/>
<path d="M14.2727 5.09107C14.2727 4.86356 14.2121 4.65368 14.1136 4.53978C14.0152 4.42616 13.8938 4.42616 13.7954 4.53978C13.6969 4.65368 13.6363 4.86356 13.6363 5.09107C13.6363 5.3183 13.6969 5.52847 13.7954 5.64208C13.8938 5.7557 14.0152 5.7557 14.1136 5.64208C14.2121 5.52847 14.2727 5.3183 14.2727 5.09107Z" fill="#FF9F0D"/>
<path d="M14.2727 2.86363C14.2727 2.75002 14.2121 2.64494 14.1136 2.58813C14.0152 2.53132 13.8938 2.53132 13.7954 2.58813C13.6969 2.64494 13.6363 2.75002 13.6363 2.86363C13.6363 2.97739 13.6969 3.08233 13.7954 3.13928C13.8938 3.19609 14.0152 3.19609 14.1136 3.13928C14.2121 3.08233 14.2727 2.97739 14.2727 2.86363Z" fill="#FF9F0D"/>
<path d="M16.1819 4.13636C16.1819 4.02273 16.1212 3.91765 16.0228 3.86083C15.9243 3.80402 15.803 3.80402 15.7046 3.86083C15.6061 3.91765 15.5455 4.02273 15.5455 4.13636C15.5455 4.25012 15.6061 4.35507 15.7046 4.41188C15.803 4.46883 15.9244 4.46883 16.0228 4.41188C16.1212 4.35507 16.1819 4.24998 16.1819 4.13636Z" fill="#FF9F0D"/>
<path d="M16.1819 7.31836C16.1819 7.20461 16.1213 7.09967 16.0228 7.04272C15.9244 6.98591 15.803 6.98591 15.7046 7.04272C15.6062 7.09967 15.5455 7.20461 15.5455 7.31836C15.5455 7.43198 15.6061 7.53706 15.7046 7.59387C15.8031 7.65068 15.9244 7.65068 16.0228 7.59387C16.1213 7.5372 16.1819 7.43198 16.1819 7.31836Z" fill="#FF9F0D"/>
<path d="M18.7273 4.13644C18.7273 3.96068 18.4424 3.81823 18.0909 3.81823C17.7394 3.81823 17.4546 3.96068 17.4546 4.13644C17.4546 4.25007 17.5757 4.35516 17.7727 4.41198C17.9695 4.46879 18.2124 4.46879 18.4091 4.41198C18.6061 4.35516 18.7273 4.25007 18.7273 4.13644Z" fill="#FF9F0D"/>
<path d="M17.4546 2.86377C17.4546 2.75002 17.3334 2.64508 17.1364 2.58813C16.9397 2.53132 16.6968 2.53132 16.5 2.58813C16.303 2.64508 16.1819 2.75002 16.1819 2.86377C16.1819 2.97739 16.303 3.08247 16.5 3.13928C16.6968 3.19609 16.9397 3.19609 17.1364 3.13928C17.3334 3.08247 17.4546 2.97739 17.4546 2.86377Z" fill="#FF9F0D"/>
<path d="M13 3.49993C13 3.32419 12.8576 3.18175 12.6818 3.18175C12.5061 3.18175 12.3636 3.32419 12.3636 3.49993C12.3636 3.67567 12.5061 3.81812 12.6818 3.81812C12.8576 3.81826 13 3.67567 13 3.49993Z" fill="#FF9F0D"/>
<path d="M17.4546 7.31826C17.4546 7.14254 17.312 7.00011 17.1364 7.00011C16.9607 7.00011 16.8182 7.14254 16.8182 7.31826C16.8182 7.432 16.8788 7.53693 16.9773 7.59387C17.0758 7.65068 17.1971 7.65068 17.2955 7.59387C17.3939 7.53693 17.4546 7.432 17.4546 7.31826Z" fill="#FF9F0D"/>
</svg>
