<svg width="28" height="20" viewBox="0 0 28 20" fill="none" xmlns="http://www.w3.org/2000/svg">
<path d="M10.8629 8.78009C10.7691 8.67901 10.6752 8.49851 10.5453 8.46963C10.4153 8.44075 10.1987 8.50572 10.1048 8.6068C9.91711 8.79452 9.77993 9.03279 9.63553 9.26382C9.49113 9.48764 9.53445 9.7259 9.72939 9.85586C9.91711 9.98582 10.1337 9.94972 10.2926 9.74034C10.4586 9.52374 10.603 9.29992 10.7546 9.0761C10.7979 9.0039 10.8124 8.91726 10.8629 8.78009ZM17.1804 8.43353C16.7833 8.43353 16.5956 8.78008 16.7761 9.0761C16.9133 9.30714 17.0721 9.52374 17.2382 9.74034C17.397 9.94972 17.6136 9.98582 17.8085 9.85586C17.9963 9.7259 18.0468 9.49486 17.9096 9.28548C17.7652 9.04722 17.6064 8.81619 17.4331 8.59959C17.3537 8.50573 17.2237 8.46241 17.1804 8.43353ZM14.278 9.17718C14.278 9.03278 14.2852 8.88839 14.278 8.74399C14.2635 8.51295 14.0975 8.36133 13.8809 8.36133C13.6571 8.36133 13.4838 8.51295 13.4766 8.73677C13.4693 9.02557 13.4693 9.31436 13.4766 9.59594C13.4838 9.81976 13.6643 9.98582 13.8737 9.98582C14.0903 9.98582 14.2635 9.82698 14.278 9.60316C14.2852 9.46598 14.278 9.32158 14.278 9.17718Z" fill="white"/>
<path d="M27.6784 12.7006C27.534 13.0833 27.3029 13.3865 26.9636 13.6175C26.8842 13.6681 26.8408 13.7908 26.812 13.8919C26.4871 14.9171 26.1622 15.9424 25.8373 16.9748C25.238 18.8737 23.7074 20 21.7219 20C16.4874 20 11.2529 20 6.02566 20C4.04017 20 2.4951 18.8665 1.90306 16.982C1.59982 16.0218 1.28937 15.0688 1.00057 14.1085C0.921148 13.8558 0.805627 13.6753 0.589028 13.5092C-0.118529 12.975 -0.197949 12.058 0.401309 11.466C0.733427 11.1339 1.14497 11.0256 1.5926 11.1122C1.78032 11.1483 1.85974 11.0978 1.96804 10.9678C3.98241 8.36141 6.55272 6.55641 9.69341 5.56728C10.0255 5.45898 10.3649 5.36512 10.7042 5.29292C10.9425 5.2496 10.993 5.14852 10.9786 4.91026C10.8919 3.66121 11.5706 2.56377 12.7114 2.05837C13.224 1.83456 13.6066 1.53853 13.9532 1.0909C14.3792 0.534959 14.9712 0.238941 15.6066 0.0223416C15.8159 -0.0498581 15.9964 0.0584388 16.0831 0.267818C16.1697 0.469977 16.0975 0.65048 15.917 0.758779C15.7582 0.852639 15.5705 0.910395 15.4044 0.989815C14.9929 1.17753 14.6607 1.4519 14.4369 1.86343C16.0614 2.37605 16.8267 3.46627 16.7184 5.18462C17.1228 5.30014 17.5487 5.38678 17.9458 5.53118C18.6895 5.79832 19.4187 6.09434 20.1551 6.39036C20.4656 6.5131 20.5522 6.72247 20.4512 6.95351C20.3429 7.19899 20.1118 7.27119 19.8158 7.12679C18.805 6.64305 17.7581 6.28206 16.6679 6.02936C16.5091 5.99326 16.4296 6.01492 16.343 6.15932C15.1589 8.07983 12.5525 8.07983 11.3612 6.16653C11.2962 6.05823 11.2529 5.99326 11.0941 6.02936C7.65738 6.83799 4.84881 8.62132 2.66838 11.401C2.62506 11.4588 2.58896 11.5165 2.53842 11.596C3.0727 11.827 3.55644 11.762 4.04739 11.5093C4.46615 11.2927 4.91379 11.1122 5.35421 10.9534C5.66467 10.8451 5.90293 10.975 5.96069 11.2205C6.01845 11.4804 5.88127 11.6393 5.55637 11.7548C5.19537 11.8848 4.82715 12.0147 4.49503 12.2024C3.52756 12.7367 2.61062 12.7006 1.71534 12.0508C1.41933 11.8342 1.13775 11.8487 0.950027 12.0869C0.755087 12.3396 0.812848 12.6212 1.10165 12.8594C2.18464 13.7258 3.71527 13.8341 4.94267 13.0977C5.81629 12.5779 6.68268 12.5273 7.57796 13.0111C7.82344 13.141 8.08336 13.2493 8.32884 13.3865C9.62121 14.0941 10.8847 14.0652 12.1338 13.2926C12.3215 13.1771 12.5236 13.0688 12.7186 12.9605C13.4695 12.5779 14.2203 12.5706 14.9712 12.9533C15.2817 13.1121 15.5849 13.2999 15.8881 13.4659C16.9278 14.0146 17.9819 14.0435 19.0505 13.5453C19.4187 13.3721 19.7797 13.1988 20.1407 13.0111C21.0288 12.5418 21.8879 12.5851 22.7543 13.0977C23.989 13.8341 25.4979 13.7331 26.5954 12.8667C26.8986 12.6284 26.9564 12.3541 26.7686 12.1014C26.5809 11.8487 26.2921 11.8414 25.9817 12.0653C25.0936 12.7078 24.1694 12.7584 23.2309 12.2024C22.0829 11.5238 20.9205 11.4877 19.7364 12.0797C19.3754 12.2602 19.0144 12.4407 18.6462 12.614C17.8736 12.9894 17.1011 12.9677 16.343 12.5562C16.0759 12.4118 15.8087 12.253 15.5416 12.1086C14.4153 11.5093 13.289 11.5093 12.1626 12.1086C11.8738 12.2602 11.5995 12.4335 11.3179 12.5851C10.5959 12.9677 9.85947 12.9822 9.11581 12.6428C8.45879 12.3468 7.809 12.0508 7.15198 11.7548C6.9426 11.6609 6.84152 11.4949 6.89928 11.2783C6.95704 11.0617 7.11588 10.9317 7.3397 10.9823C7.59962 11.04 7.85954 11.1267 8.10502 11.235C8.53821 11.4299 8.9642 11.6465 9.39017 11.8631C9.93889 12.1447 10.4732 12.1158 11.0147 11.8198C11.5273 11.5454 12.0327 11.235 12.5814 11.0545C13.7366 10.6646 14.8701 10.809 15.9387 11.3938C16.2058 11.5382 16.473 11.697 16.7401 11.8414C17.2455 12.123 17.7653 12.1375 18.2924 11.8848C18.6895 11.6898 19.0794 11.4877 19.4765 11.2999C20.8699 10.6429 22.2417 10.6862 23.5774 11.466C24.1045 11.7692 24.6243 11.8559 25.238 11.5815C24.9853 11.2711 24.7543 10.9823 24.516 10.7007C23.6641 9.72598 22.6966 8.88124 21.6208 8.16647C21.5703 8.13037 21.5125 8.09427 21.462 8.05817C21.1876 7.87045 21.1154 7.63941 21.2598 7.42281C21.397 7.21343 21.6497 7.19177 21.924 7.37227C23.4258 8.34697 24.7182 9.54548 25.8012 10.975C25.8878 11.0906 25.9528 11.1483 26.1261 11.1122C26.7831 10.9823 27.3896 11.3505 27.6278 11.9786C27.6495 12.0292 27.6711 12.0725 27.6928 12.123C27.6784 12.3035 27.6784 12.4984 27.6784 12.7006ZM22.9709 14.1229C22.8193 14.7944 22.6821 15.4225 22.5377 16.0507C22.4728 16.3467 22.2706 16.5128 22.0396 16.4694C21.7869 16.4189 21.6641 16.1951 21.7363 15.8846C21.8952 15.1698 22.054 14.4551 22.2128 13.7331C21.7074 13.4443 21.202 13.4154 20.6966 13.6464C20.2851 13.8341 19.8952 14.058 19.4837 14.2312C19.2743 14.3179 19.2166 14.4551 19.1949 14.6572C19.101 15.372 19 16.0796 18.8989 16.7943C18.7906 17.5741 18.6823 18.3611 18.5668 19.1553C19.3754 19.1553 20.1696 19.1553 20.971 19.1553C20.9927 19.0831 21.0215 19.0109 21.036 18.9314C21.1298 18.5271 21.2165 18.13 21.3103 17.7257C21.3537 17.538 21.4403 17.3864 21.6425 17.3503C21.9457 17.2925 22.1767 17.5236 22.1118 17.8557C22.0323 18.2889 21.9313 18.7076 21.8374 19.1408C22.4222 19.213 23.267 18.9387 23.8373 18.5055C24.3572 18.1084 24.7543 17.603 24.9636 16.9893C25.2741 16.0796 25.5485 15.1554 25.8589 14.1879C24.8698 14.4912 23.9312 14.4767 22.9709 14.1229ZM9.18079 19.1625C8.96419 17.603 8.75481 16.0723 8.531 14.5417C8.51656 14.4623 8.45879 14.3612 8.39381 14.3323C7.88842 14.0796 7.39024 13.8125 6.86318 13.5959C6.40833 13.4082 5.95346 13.4587 5.52027 13.7114C5.93903 15.5453 6.35057 17.3575 6.75488 19.1625C7.58518 19.1625 8.36494 19.1625 9.18079 19.1625ZM15.0218 19.1625C15.0362 18.9026 15.0506 18.6643 15.0651 18.4188C15.13 17.0182 15.2022 15.6175 15.26 14.2168C15.26 14.1518 15.2383 14.058 15.195 14.0291C14.7835 13.798 14.4008 13.5092 13.8954 13.4948C13.4261 13.4804 13.0507 13.7042 12.668 13.9136C12.5236 13.993 12.4659 14.0796 12.4803 14.2457C12.5309 15.1915 12.567 16.1301 12.6103 17.0759C12.6464 17.7618 12.6897 18.4549 12.7258 19.1553C13.4911 19.1625 14.242 19.1625 15.0218 19.1625ZM14.1915 2.70817C14.1842 2.72261 14.177 2.74427 14.177 2.75871C14.177 2.97531 14.177 3.19191 14.1698 3.4085C14.1626 3.68286 14.011 3.85615 13.7799 3.86337C13.5344 3.87059 13.3684 3.69008 13.3612 3.4085C13.3539 3.17747 13.3612 2.95365 13.3612 2.71539C12.2998 2.98253 11.6139 4.0222 11.8089 5.04022C12.0255 6.16654 13.0218 6.89575 14.1265 6.75135C15.2095 6.60696 15.9748 5.63948 15.9026 4.50594C15.8448 3.61067 14.9784 2.70095 14.1915 2.70817ZM1.89584 14.2168C2.2063 15.1771 2.46622 16.1229 2.81278 17.0326C2.9644 17.4441 3.23154 17.834 3.52756 18.1589C4.14847 18.8376 4.95711 19.148 5.91737 19.1697C5.52749 17.4658 5.15205 15.7908 4.76939 14.1157C3.55644 14.4767 3.13046 14.4912 1.89584 14.2168ZM11.6572 14.4406C10.8991 14.715 10.1627 14.7583 9.38295 14.65C9.59955 16.1662 9.80893 17.6607 10.0183 19.1625C10.6537 19.1625 11.2601 19.1625 11.8883 19.1625C11.8161 17.5957 11.7367 16.0435 11.6572 14.4406ZM16.0831 14.4551C16.0037 16.0435 15.9315 17.5957 15.852 19.1553C16.4874 19.1553 17.1011 19.1553 17.7292 19.1553C17.9386 17.6463 18.148 16.1518 18.3646 14.6283C17.5704 14.7655 16.8484 14.7222 16.0831 14.4551Z" fill="#FF9F0D"/>
<path d="M10.8628 8.78014C10.8122 8.92454 10.7978 9.00396 10.7617 9.06894C10.6173 9.29276 10.4657 9.51658 10.2996 9.73317C10.1408 9.94255 9.92419 9.97865 9.73647 9.84869C9.54153 9.71873 9.49821 9.48047 9.64261 9.25665C9.78701 9.03284 9.92419 8.78736 10.1119 8.59964C10.213 8.49856 10.4224 8.43358 10.5523 8.46246C10.6751 8.49856 10.7617 8.67906 10.8628 8.78014Z" fill="#FF9F0D"/>
<path d="M17.1805 8.43359C17.2311 8.46247 17.361 8.50579 17.426 8.59965C17.5993 8.81625 17.7581 9.04729 17.9025 9.28555C18.0325 9.49493 17.9819 9.72597 17.8014 9.85593C17.6137 9.98589 17.3899 9.94979 17.2311 9.74041C17.065 9.52381 16.9134 9.30721 16.769 9.07617C16.5885 8.78015 16.7762 8.43359 17.1805 8.43359Z" fill="#FF9F0D"/>
<path d="M14.2783 9.17754C14.2783 9.32194 14.2855 9.46634 14.2783 9.61074C14.2638 9.83455 14.0833 9.99339 13.8739 9.99339C13.6573 9.99339 13.4841 9.82734 13.4769 9.60352C13.4696 9.31472 13.4696 9.02592 13.4769 8.74434C13.4841 8.5133 13.6573 8.36168 13.8812 8.3689C14.105 8.3689 14.271 8.52052 14.2783 8.75156C14.2855 8.88874 14.2783 9.03314 14.2783 9.17754Z" fill="#FF9F0D"/>
</svg>
