<svg width="25" height="24" viewBox="0 0 25 24" fill="none" xmlns="http://www.w3.org/2000/svg">
<path d="M23.7464 2.17186L23.7463 2.17188C20.9143 3.38338 18.345 5.1232 16.1884 7.29345H15.6889C17.8862 5.00934 20.5187 3.16632 23.4504 1.9121C23.5216 1.88165 23.5761 1.88714 23.6235 1.90652C23.6796 1.92946 23.7349 1.97733 23.7703 2.03767C23.8035 2.094 23.8026 2.13033 23.8018 2.13842C23.7987 2.14173 23.7844 2.15562 23.7464 2.17186Z" stroke="#FF9F0D"/>
<path d="M0.510595 8.97607H13.9733H15.759H23.6601C23.3983 15.1425 18.3162 20.0614 12.0853 20.0614C5.85448 20.0614 0.772438 15.1425 0.510595 8.97607Z" stroke="#FF9F0D"/>
<path d="M0.25 23.7256V22.1772H23.9207V23.7256H0.25Z" stroke="#FF9F0D" stroke-width="0.5"/>
<path d="M7.38162 4.5815C7.3811 4.56792 7.38041 4.55535 7.37988 4.54602L7.37855 4.52163C7.37846 4.51972 7.37839 4.5181 7.37834 4.51675L7.38733 4.42431C7.38735 4.42414 7.38737 4.42398 7.38738 4.42381C7.39359 4.36154 7.40303 4.295 7.41505 4.22231L7.41506 4.22232L7.41562 4.21879C7.41871 4.19923 7.42188 4.18957 7.43179 4.15947C7.43825 4.13982 7.44758 4.11145 7.46163 4.06591C7.48212 4.00303 7.50179 3.94544 7.52266 3.89145C7.57795 3.78173 7.63916 3.67078 7.70611 3.56041C7.79192 3.44815 7.885 3.33635 7.98347 3.22842L7.98358 3.22852L7.99165 3.21922C7.99914 3.2106 8.0024 3.20739 8.00358 3.20624L8.00362 3.2062L8.01026 3.1999L8.02633 3.18485L8.02634 3.18486L8.08724 3.12765L8.08726 3.12767L8.09111 3.12397C8.12319 3.09319 8.15789 3.06223 8.20026 3.02474L8.20026 3.02474L8.20135 3.02377L8.26413 2.96789L8.26413 2.96789L8.26545 2.96671L8.27266 2.96024L8.31047 2.93069L8.31057 2.93082L8.32058 2.92257L8.3262 2.91794L8.32641 2.91776L8.34647 2.90121L8.43478 2.83022L8.43488 2.83034L8.44434 2.82234C8.56866 2.71724 8.68134 2.61389 8.78165 2.51066L8.78166 2.51067L8.7833 2.50896C8.87829 2.41028 8.97042 2.30706 9.0584 2.18593L9.05876 2.18543C9.14927 2.0605 9.23109 1.91921 9.29932 1.75809L9.29973 1.7571C9.36361 1.60535 9.41822 1.43494 9.45437 1.2597C9.48072 1.1383 9.5007 1.01698 9.51606 0.901043C9.57332 0.968384 9.63009 1.04592 9.68376 1.13518C9.77069 1.28444 9.84622 1.45626 9.88696 1.6529L9.88696 1.65291L9.88751 1.6555C9.93031 1.85667 9.94019 2.09206 9.89753 2.33346L9.89711 2.33589C9.8558 2.57659 9.75991 2.82568 9.62311 3.04421L9.62217 3.04571C9.48568 3.26546 9.31201 3.45955 9.122 3.62224L8.96054 3.74694L8.86394 3.81887L8.86394 3.81887L8.86146 3.82073C8.81506 3.85574 8.77829 3.88347 8.74165 3.90898L8.74163 3.90896L8.73746 3.91194L8.66931 3.96044L8.6692 3.96051C8.66816 3.96126 8.66622 3.96263 8.6637 3.96441C8.65539 3.97028 8.64078 3.98061 8.63128 3.98752C8.62425 3.99263 8.61205 4.0016 8.59909 4.01203C8.59276 4.01713 8.58165 4.02624 8.56891 4.03801C8.56706 4.03972 8.56496 4.04168 8.56266 4.04388C8.55952 4.04619 8.55249 4.05093 8.53934 4.05796L8.48245 4.08838L8.43515 4.13225C8.40435 4.16081 8.37879 4.18175 8.35264 4.19939L8.29853 4.23591L8.2604 4.27961C8.25838 4.28145 8.25507 4.28438 8.24987 4.28885L8.2216 4.31271C8.21029 4.32224 8.19536 4.33489 8.17979 4.34877L8.15229 4.37329L8.12869 4.40157C8.12604 4.40474 8.12428 4.40668 8.12309 4.4079C8.0906 4.43689 8.04169 4.48438 7.99785 4.54919L7.99569 4.55208L7.98767 4.56274C7.98526 4.56588 7.98348 4.56814 7.98214 4.56979C7.93288 4.62527 7.90417 4.67868 7.89038 4.70656L7.88964 4.7076L7.8766 4.73206C7.87648 4.73226 7.87634 4.73249 7.8762 4.73273L7.87141 4.74066L7.86327 4.75426C7.8522 4.77296 7.82692 4.81614 7.80595 4.87126L7.80579 4.8712L7.80135 4.88388C7.79703 4.89622 7.79336 4.90743 7.79076 4.91542L7.78477 4.93387C7.78388 4.93656 7.78328 4.93828 7.78294 4.93925L7.77884 4.94879L7.77431 4.96103C7.71957 5.109 7.69506 5.26015 7.68053 5.3806C7.67308 5.37223 7.66575 5.36377 7.65852 5.35519C7.65018 5.34382 7.64242 5.33326 7.63517 5.3234C7.58192 5.25101 7.55624 5.2161 7.53448 5.1702L7.52874 5.15809L7.52236 5.14631C7.50956 5.12265 7.49956 5.10008 7.48114 5.05849C7.47625 5.04747 7.47078 5.03511 7.4645 5.02104C7.45885 5.0065 7.45535 4.9942 7.44834 4.9695C7.44293 4.95043 7.43542 4.92397 7.4232 4.88339L7.4233 4.88336L7.42007 4.87339C7.39952 4.81001 7.38827 4.72479 7.38162 4.5815ZM7.38162 4.5815C7.38165 4.58237 7.38169 4.58325 7.38172 4.58413L6.88206 4.60247M7.38162 4.5815C7.38159 4.58084 7.38156 4.58019 7.38153 4.57953L6.88206 4.60247M6.88206 4.60247C6.88165 4.59131 6.88101 4.58002 6.88036 4.56868C6.87884 4.54183 6.8773 4.51467 6.87876 4.48819L6.94444 5.0276C6.90185 4.89623 6.889 4.75363 6.88206 4.60247Z" stroke="#FF9F0D"/>
<path d="M11.2961 4.58168C11.2956 4.56817 11.2949 4.5557 11.2944 4.54638L11.2931 4.52179C11.293 4.51985 11.2929 4.51821 11.2929 4.51683L11.3019 4.42431C11.3019 4.4242 11.302 4.42409 11.302 4.42397C11.3082 4.36165 11.3176 4.29507 11.3296 4.22231L11.3297 4.22232L11.3302 4.21879C11.3333 4.1993 11.3364 4.18983 11.3461 4.16039C11.3526 4.14073 11.362 4.11217 11.3763 4.06578C11.3967 4.00294 11.4164 3.9454 11.4373 3.89145C11.4925 3.78173 11.5538 3.67078 11.6207 3.56041C11.7065 3.44815 11.7996 3.33635 11.8981 3.22842L11.8982 3.22852L11.9065 3.21894C11.914 3.21027 11.9172 3.20716 11.9183 3.2061L11.9248 3.19987L11.9409 3.18485L11.9409 3.18486L12.0018 3.12765L12.0018 3.12767L12.0057 3.12397C12.0377 3.09319 12.0724 3.06223 12.1148 3.02474L12.1158 3.0239L12.1786 2.96802L12.1786 2.96802L12.18 2.96671L12.1873 2.96024L12.2251 2.93069L12.2252 2.93082L12.2352 2.92255L12.2408 2.91792L12.241 2.91776L12.2611 2.90116L12.3494 2.83014L12.3495 2.83025L12.3589 2.82234C12.4834 2.7171 12.5958 2.61388 12.696 2.51097L12.696 2.51098L12.6979 2.50896C12.7929 2.41028 12.885 2.30706 12.973 2.18593L12.9734 2.18543C13.0638 2.0606 13.1457 1.91926 13.214 1.75794L13.2144 1.75695C13.2782 1.60528 13.3328 1.43496 13.3689 1.25983C13.3953 1.13843 13.4153 1.01709 13.4306 0.901157C13.4879 0.968475 13.5446 1.04598 13.5983 1.1352C13.6852 1.28439 13.7607 1.45621 13.8014 1.6529L13.8014 1.65291L13.802 1.6555C13.8448 1.85673 13.8547 2.09212 13.812 2.33346L13.8116 2.33581C13.7703 2.57657 13.6744 2.82566 13.5375 3.04415L13.5366 3.04571C13.4 3.26552 13.2265 3.45959 13.0365 3.62218L12.8749 3.74692L12.7783 3.81887L12.7783 3.81886L12.7752 3.82121C12.7297 3.85563 12.6927 3.88346 12.6563 3.90884L12.6562 3.90882L12.6519 3.91194L12.5837 3.96044L12.5832 3.96081C12.5824 3.96139 12.5806 3.96266 12.5781 3.96438C12.57 3.97015 12.5547 3.98095 12.5457 3.98752C12.5387 3.99261 12.5264 4.00165 12.5133 4.01217C12.507 4.01731 12.4957 4.02656 12.4828 4.03852C12.4811 4.04011 12.4792 4.04191 12.4771 4.04392C12.4739 4.04624 12.4669 4.05097 12.4538 4.05796L12.3972 4.08825L12.35 4.13186C12.3185 4.16101 12.293 4.18189 12.2671 4.19939L12.2131 4.2358L12.175 4.27948C12.1729 4.28133 12.1696 4.28432 12.1642 4.28889L12.136 4.31277C12.1247 4.32229 12.1098 4.33492 12.0942 4.34877L12.0667 4.37329L12.0431 4.40157C12.0405 4.40471 12.0388 4.40658 12.0377 4.40774C12.0059 4.4361 11.9567 4.48367 11.9126 4.54883L11.9101 4.55216L11.9019 4.56304C11.8996 4.56604 11.8979 4.56814 11.8968 4.56961C11.8472 4.62538 11.8184 4.67911 11.8046 4.70715L11.8045 4.70727L11.7915 4.73136C11.7913 4.73174 11.791 4.73222 11.7907 4.73281L11.7858 4.74097L11.7776 4.75456C11.7666 4.7733 11.7421 4.81516 11.7215 4.86835L11.7185 4.87607L11.7158 4.88388C11.7114 4.89646 11.7077 4.90787 11.7051 4.91594L11.6991 4.93443C11.6983 4.93664 11.6978 4.93816 11.6975 4.9391L11.6936 4.94812L11.6891 4.96034C11.634 5.10862 11.6095 5.2601 11.595 5.38052C11.5876 5.37215 11.5803 5.3637 11.573 5.35512C11.5651 5.34428 11.5576 5.33417 11.5507 5.3247C11.497 5.25173 11.4709 5.21621 11.4488 5.1697L11.4432 5.15785L11.4369 5.14631C11.4241 5.12265 11.4141 5.10009 11.3957 5.0585C11.3908 5.04743 11.3853 5.03501 11.379 5.02086C11.3733 5.00636 11.3698 4.994 11.3627 4.96889C11.3573 4.94992 11.3498 4.92367 11.3378 4.88372L11.338 4.88369L11.3346 4.87323C11.3141 4.81003 11.3028 4.72507 11.2961 4.58168ZM11.2961 4.58168C11.2962 4.58271 11.2962 4.58375 11.2962 4.58479L10.7966 4.60247M11.2961 4.58168C11.2961 4.58091 11.2961 4.58014 11.296 4.57937L10.7966 4.60247M10.7966 4.60247C10.7962 4.59116 10.7955 4.57971 10.7949 4.56821C10.7934 4.54151 10.7919 4.51451 10.7933 4.48819L10.859 5.0276C10.8164 4.89623 10.8035 4.75363 10.7966 4.60247Z" stroke="#FF9F0D"/>
</svg>
