<svg width="27" height="27" viewBox="0 0 27 27" fill="none" xmlns="http://www.w3.org/2000/svg">
<path fill-rule="evenodd" clip-rule="evenodd" d="M2.71307 16.7485C5.23821 12.6979 9.30754 9.84861 14.7799 8.3481C20.8088 6.69497 24.1622 9.13672 24.9665 10.9751C25.33 11.806 25.586 12.8522 25.1672 14.1017C24.7565 15.327 23.7253 16.6615 21.7236 18.1568C19.7093 19.6614 17.0392 20.9687 14.3918 21.9406C11.7451 22.9123 9.07775 23.5645 7.05613 23.735C4.99589 23.9088 3.19107 23.3375 2.25971 22.0259C1.30611 20.683 1.43043 18.806 2.71307 16.7485ZM3.19041 17.0461C5.62779 13.1362 9.56718 10.3607 14.9286 8.89057C20.7741 7.28772 23.7912 9.69203 24.4512 11.2006C25.1111 12.7091 25.2997 14.7833 21.387 17.7061C17.4742 20.6289 10.9216 22.8445 7.00886 23.1745C3.09612 23.5045 0.753043 20.9559 3.19041 17.0461Z" fill="#FF9F0D"/>
<path d="M10.7802 17.8946C9.72427 15.8204 6.60037 14.7361 5.17041 14.4533C5.69839 13.5859 6.77322 12.8662 7.24463 12.6147C9.54513 14.0478 10.5602 16.7318 10.7802 17.8946Z" fill="#FF9F0D"/>
<path d="M15.5288 16.0249C14.2956 13.2183 11.4519 11.0348 10.022 10.7519C10.9362 9.98651 12.7186 9.57881 13.19 9.32739C15.8264 10.7519 15.3088 14.862 15.5288 16.0249Z" fill="#FF9F0D"/>
<path d="M20.1638 12.7931C19.0157 9.92278 17.6176 9.32043 16.3863 8.54017C17.0383 8.26435 18.7192 8.32852 19.2496 8.26435C20.3552 9.79519 20.3552 11.0284 20.1638 12.7931Z" fill="#FF9F0D"/>
<path fill-rule="evenodd" clip-rule="evenodd" d="M7.02567 12.638C7.05842 12.4862 7.20806 12.3896 7.35989 12.4224C7.98334 12.5569 8.7747 13.0641 9.50076 13.9109C10.2333 14.7652 10.9174 15.985 11.3156 17.5833C11.3531 17.7341 11.2614 17.8867 11.1107 17.9242C10.9599 17.9618 10.8073 17.87 10.7698 17.7193C10.3919 16.2028 9.74717 15.0625 9.07373 14.277C8.39385 13.484 7.7022 13.0717 7.2413 12.9723C7.08946 12.9395 6.99292 12.7899 7.02567 12.638Z" fill="#FF9F0D"/>
<path fill-rule="evenodd" clip-rule="evenodd" d="M13.3413 9.27406C13.4296 9.14624 13.6048 9.11417 13.7326 9.20242C14.2438 9.5554 14.8286 10.3575 15.2842 11.4722C15.7445 12.5983 16.0865 14.0749 16.0865 15.8124C16.0865 15.9677 15.9606 16.0937 15.8053 16.0937C15.6499 16.0937 15.524 15.9677 15.524 15.8124C15.524 14.148 15.1963 12.7437 14.7636 11.6851C14.3262 10.6152 13.7948 9.92892 13.413 9.6653C13.2852 9.57705 13.2531 9.40188 13.3413 9.27406Z" fill="#FF9F0D"/>
<path fill-rule="evenodd" clip-rule="evenodd" d="M19.2448 8.22408C19.3434 8.10405 19.5207 8.08667 19.6407 8.18527C20.1524 8.60563 20.5146 9.32001 20.7083 10.1226C20.9036 10.9318 20.9368 11.866 20.7586 12.7629C20.7283 12.9153 20.5803 13.0142 20.4279 12.984C20.2756 12.9537 20.1766 12.8056 20.2069 12.6533C20.3688 11.8386 20.3382 10.9868 20.1615 10.2546C19.9831 9.51568 19.6649 8.93309 19.2836 8.61992C19.1636 8.52133 19.1462 8.3441 19.2448 8.22408Z" fill="#FF9F0D"/>
<path d="M20.093 16.4633C20.0208 16.7581 19.7858 16.9539 19.5682 16.9006C19.3506 16.8473 19.2327 16.565 19.305 16.2702C19.3772 15.9753 19.6122 15.7796 19.8298 15.8329C20.0474 15.8862 20.1653 16.1685 20.093 16.4633Z" fill="#FF9F0D"/>
<path d="M18.1465 17.2038C18.0878 17.4433 17.8969 17.6024 17.7201 17.5591C17.5433 17.5157 17.4476 17.2865 17.5063 17.047C17.565 16.8074 17.7559 16.6484 17.9326 16.6917C18.1094 16.735 18.2051 16.9643 18.1465 17.2038Z" fill="#FF9F0D"/>
<path d="M19.539 17.9267C19.4803 18.1662 19.2895 18.3253 19.1127 18.282C18.9359 18.2386 18.8402 18.0094 18.8989 17.7698C18.9575 17.5303 19.1484 17.3713 19.3252 17.4146C19.502 17.4579 19.5977 17.6872 19.539 17.9267Z" fill="#FF9F0D"/>
<path d="M19.0425 15.2485C18.9838 15.488 18.7929 15.6471 18.6161 15.6037C18.4393 15.5604 18.3436 15.3311 18.4023 15.0916C18.461 14.8521 18.6519 14.6931 18.8286 14.7364C19.0054 14.7797 19.1011 15.009 19.0425 15.2485Z" fill="#FF9F0D"/>
<path d="M21.4638 15.8606C21.4051 16.1001 21.2143 16.2591 21.0375 16.2158C20.8607 16.1725 20.765 15.9432 20.8237 15.7037C20.8824 15.4642 21.0732 15.3051 21.25 15.3485C21.4268 15.3918 21.5225 15.6211 21.4638 15.8606Z" fill="#FF9F0D"/>
<path d="M20.7779 14.8803C20.7117 15.1504 20.4964 15.3297 20.2971 15.2809C20.0977 15.232 19.9898 14.9735 20.0559 14.7034C20.1221 14.4333 20.3374 14.254 20.5367 14.3028C20.7361 14.3517 20.844 14.6102 20.7779 14.8803Z" fill="#FF9F0D"/>
<path d="M22.9466 15.0363C22.8804 15.3064 22.6651 15.4857 22.4658 15.4369C22.2664 15.388 22.1585 15.1295 22.2246 14.8594C22.2908 14.5893 22.5061 14.41 22.7054 14.4588C22.9048 14.5077 23.0128 14.7662 22.9466 15.0363Z" fill="#FF9F0D"/>
<path d="M22.4119 13.8813C22.3457 14.1514 22.1305 14.3307 21.9311 14.2819C21.7317 14.233 21.6238 13.9745 21.69 13.7044C21.7562 13.4343 21.9714 13.2549 22.1708 13.3038C22.3701 13.3526 22.4781 13.6112 22.4119 13.8813Z" fill="#FF9F0D"/>
<path d="M24.283 13.6979C24.2168 13.968 24.0015 14.1474 23.8022 14.0985C23.6028 14.0497 23.4949 13.7911 23.5611 13.521C23.6273 13.2509 23.8425 13.0716 24.0419 13.1204C24.2412 13.1693 24.3492 13.4278 24.283 13.6979Z" fill="#FF9F0D"/>
<path d="M22.341 16.2178C22.2977 16.3946 22.1569 16.5119 22.0264 16.48C21.8959 16.448 21.8253 16.2788 21.8686 16.102C21.9119 15.9253 22.0528 15.8079 22.1832 15.8399C22.3137 15.8718 22.3844 16.041 22.341 16.2178Z" fill="#FF9F0D"/>
<path d="M20.874 17.3235C20.8307 17.5003 20.6898 17.6176 20.5594 17.5857C20.4289 17.5537 20.3582 17.3845 20.4016 17.2077C20.4449 17.031 20.5857 16.9136 20.7162 16.9456C20.8467 16.9776 20.9173 17.1468 20.874 17.3235Z" fill="#FF9F0D"/>
<path d="M16.8447 19.4815C16.8014 19.6582 16.6605 19.7756 16.5301 19.7436C16.3996 19.7117 16.3289 19.5425 16.3723 19.3657C16.4156 19.1889 16.5564 19.0716 16.6869 19.1035C16.8174 19.1355 16.888 19.3047 16.8447 19.4815Z" fill="#FF9F0D"/>
<path d="M18.3745 18.4182C18.3312 18.595 18.1903 18.7124 18.0598 18.6804C17.9294 18.6484 17.8587 18.4792 17.902 18.3025C17.9454 18.1257 18.0862 18.0083 18.2167 18.0403C18.3472 18.0723 18.4178 18.2415 18.3745 18.4182Z" fill="#FF9F0D"/>
<path d="M17.2438 18.2028C17.2085 18.3465 17.094 18.442 16.9879 18.416C16.8818 18.39 16.8243 18.2524 16.8596 18.1086C16.8948 17.9649 17.0093 17.8695 17.1154 17.8955C17.2215 17.9215 17.279 18.0591 17.2438 18.2028Z" fill="#FF9F0D"/>
<path d="M17.7451 16.0022C17.7018 16.179 17.5609 16.2964 17.4304 16.2644C17.3 16.2324 17.2293 16.0632 17.2726 15.8865C17.316 15.7097 17.4568 15.5923 17.5873 15.6243C17.7178 15.6563 17.7884 15.8255 17.7451 16.0022Z" fill="#FF9F0D"/>
<path d="M19.9353 14.166C19.892 14.3428 19.7511 14.4602 19.6206 14.4282C19.4902 14.3962 19.4195 14.227 19.4628 14.0503C19.5061 13.8735 19.647 13.7561 19.7775 13.7881C19.9079 13.8201 19.9786 13.9893 19.9353 14.166Z" fill="#FF9F0D"/>
<path d="M21.3799 12.9964C21.3365 13.1731 21.1957 13.2905 21.0652 13.2585C20.9347 13.2266 20.8641 13.0573 20.9074 12.8806C20.9507 12.7038 21.0916 12.5865 21.2221 12.6184C21.3525 12.6504 21.4232 12.8196 21.3799 12.9964Z" fill="#FF9F0D"/>
<path d="M22.988 12.7119C22.9447 12.8887 22.8038 13.0061 22.6734 12.9741C22.5429 12.9421 22.4723 12.7729 22.5156 12.5962C22.5589 12.4194 22.6998 12.302 22.8302 12.334C22.9607 12.366 23.0313 12.5352 22.988 12.7119Z" fill="#FF9F0D"/>
<path d="M24.0005 12.5962C23.9572 12.773 23.8163 12.8904 23.6858 12.8584C23.5554 12.8264 23.4847 12.6572 23.528 12.4804C23.5713 12.3037 23.7122 12.1863 23.8427 12.2183C23.9731 12.2503 24.0438 12.4195 24.0005 12.5962Z" fill="#FF9F0D"/>
</svg>
