<svg width="31" height="20" viewBox="0 0 31 20" fill="none" xmlns="http://www.w3.org/2000/svg">
<path d="M29.7039 15.3471H24.9259C25.213 15.2527 25.4997 15.1504 25.7793 15.0398C27.6077 14.3179 28.5348 13.4694 28.5348 12.5176C28.5348 11.0546 27.335 10.5631 26.2764 10.1297C25.8228 9.94396 25.354 9.75169 24.9699 9.49072C24.7632 9.35055 24.4803 9.40218 24.3384 9.60614C24.1963 9.81033 24.2486 10.0895 24.4553 10.2299C24.9179 10.5444 25.4318 10.7549 25.9285 10.9584C27.0131 11.4025 27.6266 11.6938 27.6266 12.5176C27.6266 13.043 26.8305 13.6586 25.4422 14.207C23.7788 14.8637 21.8484 15.2195 21.0583 15.3471H19.5711C20.5897 14.5623 21.3116 13.4874 21.7735 12.0646C22.3359 10.333 23.1377 9.06108 24.3737 7.94084C24.7166 7.62988 24.8692 7.19089 24.8157 6.77433L27.4055 4.8712C27.476 4.81957 27.573 4.8177 27.647 4.86676C28.208 5.23893 28.7851 5.34079 29.3156 5.16113C29.734 5.01956 30.0618 4.72332 30.2389 4.32685C30.4227 3.9152 30.4208 3.43439 30.2332 3.00755C29.9875 2.44825 29.4643 2.06767 28.8676 1.99922C28.9802 1.41632 28.769 0.809118 28.3024 0.410082C27.9464 0.105665 27.4826 -0.0403526 27.0297 0.00964374C26.594 0.0577711 26.2097 0.278316 25.9474 0.630159C25.6151 1.07639 25.5406 1.65064 25.7322 2.29078C25.7575 2.37512 25.7267 2.46601 25.6565 2.51647L23.0419 4.38783C22.6554 4.21284 22.1857 4.22499 21.7827 4.45511C20.3305 5.28449 18.862 5.65923 17.021 5.67068C15.4399 5.68049 14.1401 6.07041 13.0471 6.86335C11.8272 7.74786 11.0096 9.02464 10.7447 10.4579C10.4782 11.9011 10.8024 13.3297 11.6579 14.4805C11.8965 14.8015 12.1718 15.0915 12.4769 15.3471H6.7252C3.23098 14.6518 1.53236 12.9307 1.53236 10.0862C1.53236 7.92215 2.51128 5.69147 4.21841 3.96613C6.06344 2.10108 8.52789 1.07405 11.1572 1.07405C14.1694 1.07405 17.3008 2.15949 19.7487 4.0521C19.9462 4.2049 20.2316 4.17032 20.3861 3.97524C20.5408 3.78016 20.506 3.49841 20.3085 3.34561C17.704 1.33198 14.3685 0.176921 11.1572 0.176921C8.2812 0.176921 5.5864 1.29997 3.56895 3.33907C1.69744 5.23052 0.624153 7.68992 0.624153 10.0862C0.624153 12.5157 1.71045 14.2764 3.85773 15.3471H1.29608C0.581345 15.3471 0 15.9213 0 16.6273C0 17.3334 0.581345 17.9079 1.29608 17.9079H2.94267C2.96822 17.9079 2.99092 17.9228 3.00062 17.9462L3.28893 18.6433C3.62974 19.4676 4.43222 20 5.33356 20H25.6664C26.5678 20 27.3703 19.4676 27.7111 18.6433L27.9994 17.9464C28.0091 17.923 28.0318 17.9079 28.0573 17.9079H29.7039C30.4184 17.9079 31 17.3334 31 16.6273C31 15.9216 30.4187 15.3471 29.7039 15.3471ZM26.1901 3.24235C26.5709 2.96854 26.7369 2.48399 26.603 2.03636C26.5278 1.78498 26.4798 1.42893 26.6789 1.16166C26.8201 0.971956 27.0025 0.915418 27.1307 0.901167C27.3329 0.878972 27.5429 0.947192 27.708 1.0883C28.0029 1.34062 28.0282 1.68172 27.9535 1.91675C27.8821 2.1415 27.9246 2.38891 28.0675 2.57955C28.2087 2.77089 28.4348 2.8849 28.673 2.8849H28.6732C28.9227 2.8849 29.2446 3.01106 29.4 3.36477C29.4868 3.56242 29.4899 3.78133 29.4078 3.96473C29.3558 4.08107 29.2463 4.23597 29.0209 4.31237C28.7032 4.41983 28.3735 4.26821 28.1531 4.12196C27.7612 3.86193 27.2435 3.87314 26.8641 4.15069L24.4087 5.955L23.711 5.01652L26.1901 3.24235ZM12.3901 13.9497C11.6839 12.9996 11.4169 11.8167 11.6382 10.6191C11.8613 9.41199 12.5526 8.33473 13.5845 7.58642C14.5178 6.90937 15.6438 6.57622 17.0267 6.56781C19.0342 6.55519 20.641 6.14331 22.2373 5.23169C22.413 5.13146 22.6206 5.14618 22.7529 5.25902C22.7547 5.26066 22.7566 5.26206 22.7585 5.2637C22.7767 5.28005 22.7938 5.29827 22.8087 5.31837L23.847 6.71546C23.8614 6.73485 23.8744 6.75658 23.885 6.78017C23.8855 6.78111 23.886 6.78181 23.8865 6.78251C23.9579 6.94161 23.9101 7.14347 23.7594 7.2799C22.4012 8.51112 21.5218 9.90238 20.9088 11.7906C20.4864 13.0914 19.8272 14.0528 18.8939 14.7296C18.5458 14.9821 18.1662 15.1898 17.7653 15.3471H14.198C13.4731 15.0494 12.8494 14.5677 12.3901 13.9497ZM29.7039 17.0107H9.68419C9.43349 17.0107 9.23009 17.2114 9.23009 17.4593C9.23009 17.7069 9.43349 17.9079 9.68419 17.9079H27.0342L26.8705 18.3041C26.6697 18.7893 26.1972 19.1029 25.6664 19.1029H5.33356C4.80283 19.1029 4.33028 18.7893 4.12949 18.3041L3.96582 17.9079H7.57143C7.82214 17.9079 8.02554 17.7069 8.02554 17.4593C8.02554 17.2114 7.82214 17.0107 7.57143 17.0107H1.29608C1.08204 17.0107 0.908203 16.8388 0.908203 16.6273C0.908203 16.4162 1.08204 16.2442 1.29608 16.2442H29.7039C29.9177 16.2442 30.0918 16.4162 30.0918 16.6273C30.0918 16.8388 29.9177 17.0107 29.7039 17.0107Z" fill="#FF9F0D"/>
</svg>
