<svg width="18" height="25" viewBox="0 0 18 25" fill="none" xmlns="http://www.w3.org/2000/svg">
<path d="M15.4931 11.3654L15.493 11.3652L16.2894 11.0802C16.2895 11.0802 16.2895 11.0802 16.2895 11.0802C16.5696 10.98 16.7574 10.7213 16.7732 10.4297L15.4931 11.3654ZM15.4931 11.3654L15.4814 11.3693C14.4167 11.7209 13.2863 11.7322 12.2145 11.4027C11.4396 11.1646 10.6344 11.092 9.8414 11.1845M15.4931 11.3654L9.8414 11.1845M7.42388 11.6387C7.42388 11.6387 7.42389 11.6387 7.42388 11.6387ZM7.42388 11.6387L7.42864 11.6546M7.42388 11.6387L7.42864 11.6546M7.42864 11.6546L10.2652 21.1492L10.2654 21.1498C10.4242 21.6787 10.9063 22.0265 11.4354 22.0265C11.5539 22.0265 11.6742 22.009 11.7921 21.9727C12.4427 21.7729 12.7982 21.0819 12.6061 20.4375L12.606 20.4373L9.8414 11.1845M7.42864 11.6546L9.8414 11.1845M7.20281 4.60044H6.83038L6.72375 4.24359L6.19655 2.47931C5.84022 1.2897 4.78415 0.5 3.5708 0.5L0.722313 0.5C0.606556 0.5 0.499985 0.597587 0.5 0.732949V0.733008C0.5 0.868696 0.6064 0.966016 0.722361 0.966016L3.57085 0.966016C4.59408 0.966016 5.47753 1.636 5.77233 2.61767L5.77253 2.61834L6.17259 3.9573L6.36475 4.60044L5.69352 4.60044H4.1502C3.98428 4.60044 3.82069 4.67093 3.70402 4.79563C3.58694 4.92126 3.52364 5.095 3.53316 5.27008L3.79078 10.0102L4.40478 21.3015L4.40478 21.3015C4.50246 23.1014 5.96839 24.5 7.72875 24.5H13.3035C15.0638 24.5 16.5298 23.1014 16.6274 21.3015L16.6274 21.3015L17.2419 10.0024L17.2419 10.0024L17.4991 5.27009L17.4991 5.27008C17.5086 5.09506 17.4454 4.92146 17.3285 4.7959C17.2117 4.67101 17.048 4.60044 16.882 4.60044H7.20281ZM17.0226 5.83952L16.7733 10.4296L4.25931 10.4375L4.2593 10.4374L4.00952 5.83948C4.00952 5.83946 4.00952 5.83944 4.00952 5.83943C3.9871 5.4269 4.31222 5.06645 4.73812 5.06645H5.96106C6.28737 5.06645 6.5685 5.28271 6.65994 5.58875L8.14038 10.5436C8.25896 10.5179 8.37712 10.4871 8.49466 10.4513L8.4963 10.4508L8.52541 10.4421C8.52571 10.442 8.52602 10.4419 8.52632 10.4418C8.54143 10.4372 8.55656 10.4326 8.5717 10.4282L7.25156 6.01034L7.25149 6.0101C7.11416 5.54969 7.45141 5.0665 7.95044 5.0665H16.294C16.7198 5.0665 17.045 5.42684 17.0226 5.83948C17.0226 5.83949 17.0226 5.8395 17.0226 5.83952Z" stroke="#FF9F0D"/>
</svg>
